# Blender v2.79 (sub 0) OBJ File: 'bmps.blend'
# www.blender.org
o Environment.001_Environment
v 49.999996 0.000000 -49.999992
v -50.000011 0.000000 49.999996
v -49.999985 0.000000 -50.000011
v 49.999996 0.000000 50.000008
v -49.999985 100.000000 -50.000011
v -50.000011 100.000000 49.999996
v 49.999996 100.000000 -49.999992
v 49.999996 100.000000 50.000008
vn -0.5773 -0.5773 -0.5773
vn 0.5773 -0.5773 -0.5773
vn 0.5773 -0.5773 0.5773
vn -0.5773 -0.5773 0.5773
vn -0.5773 0.5773 0.5773
vn -0.5773 0.5773 -0.5773
vn 0.5773 0.5773 -0.5773
vn 0.5773 0.5773 0.5773
s 1
f 3//1 1//2 4//3 2//4
f 3//1 2//4 6//5 5//6
f 1//2 3//1 5//6 7//7
f 4//3 1//2 7//7 8//8
f 2//4 4//3 8//8 6//5
f 5//6 6//5 8//8 7//7
