# Blender v2.79 (sub 0) OBJ File: 'bmps.blend'
# www.blender.org
o LightPlaneBig.001_LightPlaneBig
v -38.718403 26.036156 26.530254
v -41.931637 26.036152 19.687099
v -45.144867 26.036148 12.843947
v -40.435150 18.717920 27.336363
v -43.648380 18.717916 20.493208
v -46.861610 18.717913 13.650053
v -42.151894 11.399683 28.142471
v -45.365124 11.399681 21.299314
v -48.578358 11.399679 14.456160
v -45.374382 26.036146 12.355152
v -47.091129 18.717911 13.161257
v -48.807873 11.399677 13.967363
v -41.922379 11.399685 28.631266
v -40.205631 18.717922 27.825159
v -38.488888 26.036156 27.019053
v -48.700981 10.876949 14.513739
v -45.487751 10.876950 21.356895
v -42.274517 10.876951 28.200050
v -45.022240 26.558880 12.786368
v -41.809010 26.558884 19.629520
v -38.595779 26.558884 26.472675
v -39.208900 23.945230 26.760572
v -42.422134 23.945229 19.917418
v -45.635365 23.945223 13.074263
v -48.087860 13.490602 14.225843
v -44.874626 13.490605 21.068998
v -41.661396 13.490608 27.912153
v -39.636471 26.036154 24.575069
v -44.226799 26.036150 14.799133
v -41.353214 18.717918 25.381176
v -45.943546 18.717915 15.605240
v -43.069962 11.399683 26.187283
v -47.660290 11.399681 16.411346
v -45.225033 26.428196 12.434167
v -48.842461 11.007631 14.132746
v -42.071724 11.007635 28.552252
v -38.454300 26.428204 26.853668
v -45.864883 23.945221 12.585467
v -48.317375 13.490601 13.737047
v -41.431877 13.490610 28.400949
v -38.979385 23.945232 27.249369
v -47.782913 10.876949 16.468925
v -43.192585 10.876951 26.244864
v -44.104176 26.558882 14.741554
v -39.513847 26.558884 24.517488
v -40.126968 23.945229 24.805386
v -44.717300 23.945225 15.029449
v -47.169792 13.490603 16.181030
v -42.579460 13.490606 25.956966
vn 0.8762 -0.2509 -0.4114
s off
f 1//1 15//1 41//1 22//1
f 1//1 22//1 46//1 28//1
f 1//1 28//1 45//1 21//1
f 1//1 21//1 37//1 15//1
f 2//1 28//1 46//1 23//1
f 2//1 23//1 47//1 29//1
f 2//1 29//1 44//1 20//1
f 2//1 20//1 45//1 28//1
f 3//1 10//1 34//1 19//1
f 3//1 19//1 44//1 29//1
f 3//1 29//1 47//1 24//1
f 3//1 24//1 38//1 10//1
f 4//1 14//1 40//1 27//1
f 4//1 27//1 49//1 30//1
f 4//1 30//1 46//1 22//1
f 4//1 22//1 41//1 14//1
f 5//1 30//1 49//1 26//1
f 5//1 26//1 48//1 31//1
f 5//1 31//1 47//1 23//1
f 5//1 23//1 46//1 30//1
f 6//1 31//1 48//1 25//1
f 6//1 25//1 39//1 11//1
f 6//1 11//1 38//1 24//1
f 6//1 24//1 47//1 31//1
f 7//1 13//1 36//1 18//1
f 7//1 18//1 43//1 32//1
f 7//1 32//1 49//1 27//1
f 7//1 27//1 40//1 13//1
f 8//1 32//1 43//1 17//1
f 8//1 17//1 42//1 33//1
f 8//1 33//1 48//1 26//1
f 8//1 26//1 49//1 32//1
f 9//1 33//1 42//1 16//1
f 9//1 16//1 35//1 12//1
f 9//1 12//1 39//1 25//1
f 9//1 25//1 48//1 33//1
