ply
format ascii 1.0
comment Created by Blender 2.79 (sub 0) - www.blender.org, source file: 'bmps.blend'
element vertex 18
property float x
property float y
property float z
property float nx
property float ny
property float nz
element face 8
property list uchar uint vertex_indices
end_header
36.150116 -43.278114 46.276188 -0.522643 0.625706 -0.579082
33.180267 -39.722622 52.798340 -0.522643 0.625706 -0.579082
38.391663 -37.137573 50.888046 -0.522643 0.625706 -0.579082
36.150116 -43.278114 46.276188 -0.522643 0.625706 -0.579083
38.391663 -37.137573 50.888046 -0.522643 0.625706 -0.579083
42.289989 -38.149574 46.276188 -0.522643 0.625706 -0.579083
42.289989 -38.149574 46.276188 -0.522643 0.625706 -0.579082
42.591663 -42.165802 41.664330 -0.522643 0.625706 -0.579082
42.591663 -42.165802 41.664330 -0.522643 0.625706 -0.579083
39.119965 -46.833611 39.754036 -0.522643 0.625706 -0.579083
36.150116 -43.278114 46.276188 -0.522642 0.625706 -0.579083
39.119965 -46.833611 39.754036 -0.522642 0.625706 -0.579083
33.908569 -49.418655 41.664330 -0.522642 0.625706 -0.579083
30.010241 -48.406654 46.276188 -0.522642 0.625706 -0.579083
36.150116 -43.278114 46.276188 -0.522642 0.625706 -0.579082
30.010241 -48.406654 46.276188 -0.522642 0.625706 -0.579082
29.708569 -44.390427 50.888046 -0.522642 0.625706 -0.579082
29.708569 -44.390427 50.888046 -0.522643 0.625706 -0.579082
3 0 1 2
3 3 4 5
3 0 6 7
3 3 8 9
3 10 11 12
3 10 12 13
3 14 15 16
3 17 1 0
