ply
format ascii 1.0
comment Created by Blender 2.79 (sub 0) - www.blender.org, source file: 'bmps.blend'
element vertex 12
property float x
property float y
property float z
property float nx
property float ny
property float nz
element face 8
property list uchar uint vertex_indices
end_header
36.050117 -43.178116 46.176189 -0.522502 0.625823 -0.579083
33.645187 -40.297623 51.459129 -0.522502 0.625823 -0.579083
37.866886 -38.204685 49.911793 -0.522502 0.625823 -0.579083
41.024349 -39.025116 46.176189 -0.522502 0.625823 -0.579083
41.267975 -42.278316 42.440586 -0.522502 0.625823 -0.579083
38.455048 -46.058609 40.893250 -0.522502 0.625823 -0.579083
36.050117 -43.178116 46.176189 -0.522502 0.625824 -0.579083
38.455048 -46.058609 40.893250 -0.522502 0.625824 -0.579083
34.233345 -48.151546 42.440586 -0.522502 0.625824 -0.579083
31.075886 -47.331116 46.176189 -0.522502 0.625824 -0.579083
31.075886 -47.331116 46.176189 -0.522502 0.625823 -0.579083
30.832260 -44.077915 49.911793 -0.522502 0.625823 -0.579083
3 0 1 2
3 0 2 3
3 0 3 4
3 0 4 5
3 6 7 8
3 6 8 9
3 0 10 11
3 11 1 0
