ply
format ascii 1.0
comment Created by Blender 2.79 (sub 0) - www.blender.org, source file: 'bmps.blend'
element vertex 8
property float x
property float y
property float z
property float nx
property float ny
property float nz
element face 6
property list uchar uint vertex_indices
end_header
-49.999985 50.000011 0.000000 -0.577349 0.577349 -0.577349
49.999996 49.999992 0.000000 0.577349 0.577349 -0.577349
49.999996 -50.000008 0.000000 0.577349 -0.577349 -0.577349
-50.000011 -49.999996 0.000000 -0.577349 -0.577349 -0.577349
-50.000011 -49.999996 100.000000 -0.577349 -0.577349 0.577349
-49.999985 50.000011 100.000000 -0.577349 0.577349 0.577349
49.999996 49.999992 100.000000 0.577349 0.577349 0.577349
49.999996 -50.000008 100.000000 0.577349 -0.577349 0.577349
4 0 1 2 3
4 0 3 4 5
4 1 0 5 6
4 2 1 6 7
4 3 2 7 4
4 5 4 7 6
