ply
format ascii 1.0
comment Created by Blender 2.79 (sub 0) - www.blender.org, source file: 'bmps.blend'
element vertex 912
property float x
property float y
property float z
element face 606
property list uchar uint vertex_indices
end_header
23.796652 32.491165 99.980011
38.846657 8.541166 99.980011
33.996651 8.541166 99.980011
-14.862230 29.176552 99.980011
-9.953347 29.241169 99.980011
-14.853348 28.391165 99.980011
-39.303352 29.741165 99.980011
-34.392616 29.608063 99.980011
-34.403343 28.691166 99.980011
-15.272094 32.659920 99.980011
-10.370710 33.166397 99.980011
-15.130400 32.022968 99.980011
-15.668158 33.843018 99.980011
-10.893193 34.927887 99.980011
-15.450247 33.266663 99.980011
-15.929123 34.388821 99.980011
-38.097099 35.750538 99.980011
-33.327560 34.484913 99.980011
-33.573715 34.043018 99.980011
-16.236444 34.903900 99.980011
-33.043396 34.901810 99.980011
-32.719292 35.301350 99.980011
-32.353348 35.691162 99.980011
-37.221863 37.335613 99.980011
-31.336679 36.583061 99.980011
-31.855429 36.157864 99.980011
-30.797096 36.966946 99.980011
-18.379908 36.924759 99.980011
-12.568367 38.002598 99.980011
-17.873716 36.583061 99.980011
-18.932976 37.243019 99.980011
-30.236679 37.309681 99.980011
-19.532570 37.534889 99.980011
-20.178345 37.797417 99.980011
-36.149414 38.718597 99.980011
-29.053347 37.872417 99.980011
-29.655428 37.611450 99.980011
-28.430429 38.092758 99.980011
-21.607050 38.222649 99.980011
-13.722099 39.297417 99.980011
-20.869955 38.027657 99.980011
-27.786680 38.272644 99.980011
-22.389282 38.379448 99.980011
-27.122095 38.412258 99.980011
-23.216309 38.495098 99.980011
-26.436680 38.511768 99.980011
-24.087778 38.566658 99.980011
-25.730429 38.571346 99.980011
-25.003345 38.591167 99.980011
-30.359596 42.313042 99.980011
-18.454128 42.101322 99.980011
-31.984829 41.696724 99.980011
-20.456818 42.645103 99.980011
-28.655199 42.748108 99.980011
-22.673050 42.978119 99.980011
-26.895245 43.006096 99.980011
-25.103346 43.091164 99.980011
-25.519928 -41.835773 99.980011
-23.353464 -41.892178 99.980011
-24.003347 -41.908836 99.980011
-22.704273 -41.842178 99.980011
-22.056471 -41.758842 99.980011
-26.940153 -41.620178 99.980011
-21.410755 -41.642178 99.980011
-20.767813 -41.492172 99.980011
-28.257254 -41.267426 99.980011
-20.128347 -41.308838 99.980011
-19.493048 -41.092175 99.980011
-29.464458 -40.782906 99.980011
-18.237722 -40.558838 99.980011
-18.862606 -40.842171 99.980011
-30.554996 -40.171997 99.980011
-17.007397 -39.892170 99.980011
-17.619089 -40.242168 99.980011
-31.522097 -39.440083 99.980011
-24.403347 -37.508835 99.980011
-16.403347 -39.508835 99.980011
-23.818163 -37.491505 99.980011
-23.213533 -37.436844 99.980011
-22.590849 -37.340866 99.980011
-21.951494 -37.199574 99.980011
-21.296867 -37.008976 99.980011
-20.628347 -36.765083 99.980011
-19.947329 -36.463894 99.980011
-19.255201 -36.101421 99.980011
-18.553349 -35.673676 99.980011
-17.843164 -35.176655 99.980011
-17.126034 -34.606373 99.980011
-16.403347 -33.958832 99.980011
-25.171316 -37.474979 99.980011
-33.058907 -37.634758 99.980011
-33.615067 -36.572113 99.980011
-26.576002 -37.213520 99.980011
-25.897097 -37.375500 99.980011
-27.203346 -36.992165 99.980011
-27.774439 -36.714561 99.980011
-28.284595 -36.383831 99.980011
-34.269058 -34.153767 99.980011
-29.757254 -34.042686 99.980011
-29.622099 -34.592167 99.980011
-34.063126 -30.640894 99.980011
-28.710754 -30.656521 99.980011
-29.513126 -31.949692 99.980011
-32.048660 -27.168209 99.980011
-24.255024 -27.461729 99.980011
-25.979273 -28.473652 99.980011
-21.908033 -19.955708 99.980011
-16.145939 -20.752815 99.980011
-23.427420 -21.123648 99.980011
-19.893566 -17.249689 99.980011
-15.343567 -18.653393 99.980011
-20.695938 -18.681519 99.980011
-34.153351 -10.058832 99.980011
-33.515068 -15.489214 99.980011
-34.153351 -16.258835 99.980011
-32.851265 -14.781054 99.980011
-32.163506 -14.135395 99.980011
-31.453346 -13.553278 99.980011
-30.722359 -13.035742 99.980011
-20.953346 -12.746332 99.980011
-15.772096 -12.456488 99.980011
-20.536507 -13.183195 99.980011
-29.972099 -12.583832 99.980011
-29.204128 -12.198589 99.980011
-22.025570 -12.001425 99.980011
-16.307051 -11.382906 99.980011
-21.449354 -12.349051 99.980011
-28.420015 -11.881054 99.980011
-22.683035 -11.713520 99.980011
-27.621315 -11.632269 99.980011
-23.422791 -11.495405 99.980011
-26.809599 -11.453276 99.980011
-25.986420 -11.345116 99.980011
-25.153347 -11.308830 99.980011
-16.974644 -10.403769 99.980011
-24.245880 -11.357153 99.980011
-31.232977 -8.286610 99.980011
-19.682978 -8.118092 99.980011
-31.979130 -8.659613 99.980011
-29.697098 -7.677583 99.980011
-20.790848 -7.601801 99.980011
-30.472937 -7.959440 99.980011
-28.903549 -7.440516 99.980011
-21.986216 -7.222489 99.980011
-28.090385 -7.247721 99.980011
-27.255692 -7.098676 99.980011
-23.260061 -6.988665 99.980011
-26.397560 -6.992860 99.980011
-25.514084 -6.929752 99.980011
-24.603346 -6.908833 99.980011
40.497108 -49.980713 58.000023
35.897110 -49.980713 58.000023
35.897110 -49.980709 84.250023
13.097111 -49.980717 58.000023
8.897110 -49.980721 58.000023
13.497110 -49.980717 65.700027
-21.671553 -49.980728 92.386169
-27.077227 -49.980736 92.387115
-24.352890 -49.980728 92.550026
-29.618402 -49.980736 91.913452
-19.160528 -49.980728 91.909973
-31.966175 -49.980732 91.151588
-24.352890 -49.980732 88.050018
-37.746643 -49.980732 87.362526
-12.769123 -49.980724 88.838364
-26.221613 -49.980732 87.937469
-27.994326 -49.980732 87.607895
-29.658360 -49.980732 87.073463
-32.609688 -49.980732 85.438629
-39.218369 -49.980732 85.673576
-31.201040 -49.980732 86.346329
-9.579367 -49.980724 85.652313
-16.136166 -49.980724 85.438622
-17.539928 -49.980724 86.346321
-34.974213 -49.980732 83.130173
-40.445488 -49.980736 83.809280
-33.871643 -49.980732 84.362526
-8.341780 -49.980724 83.787064
-13.777948 -49.980724 83.130173
-14.877890 -49.980724 84.362518
-37.198959 -49.980736 78.617157
-42.124886 -49.980736 79.644928
-36.650543 -49.980736 80.245338
-6.641086 -49.980724 79.627571
-11.556593 -49.980724 78.617157
-12.104452 -49.980724 80.245331
-8.293631 -49.980728 66.401871
-13.777948 -49.980732 66.991135
-12.849186 -49.980732 68.368546
-34.974213 -49.980736 66.991135
-40.486229 -49.980736 66.424095
-35.904747 -49.980736 68.368546
-9.511368 -49.980728 64.532806
-16.136166 -49.980728 64.676613
-14.877890 -49.980728 65.756271
-32.609688 -49.980732 64.676613
-39.271904 -49.980732 64.554077
-33.871643 -49.980732 65.756271
-10.971640 -49.980728 62.831272
-19.076326 -49.980728 63.033615
-17.539927 -49.980728 63.764839
-29.658360 -49.980732 63.033615
-37.809143 -49.980732 62.850021
-31.201040 -49.980732 63.764835
-12.664205 -49.980728 61.322449
-22.495657 -49.980732 62.163536
-20.732521 -49.980728 62.495625
-26.221613 -49.980732 62.163532
-36.105759 -49.980732 61.337639
-27.994326 -49.980732 62.495625
-24.352890 -49.980732 62.050022
-19.033213 -49.980732 58.203957
-27.042213 -49.980732 57.718658
-29.629972 -49.980732 58.207432
-21.552513 -49.980732 57.717701
-24.252890 -49.980732 57.550022
29.797112 -49.980724 37.700024
24.047112 -49.980724 37.700024
15.014965 -49.980728 38.283241
18.276249 -49.980728 33.127510
13.268322 -49.980728 33.627220
18.367712 -49.980728 33.753258
18.671331 -49.980728 30.229713
13.500351 -49.980728 29.734978
18.438086 -49.980728 30.923172
19.395117 -49.980728 29.041405
13.883049 -49.980728 28.550804
18.991558 -49.980728 29.601875
20.437653 -49.980728 28.129478
14.423038 -49.980728 27.446320
19.878365 -49.980728 28.550026
21.069334 -49.980728 27.781509
21.769770 -49.980728 27.507835
29.797112 -49.980728 22.750023
18.204519 -49.980728 24.037064
17.011061 -49.980728 24.716896
19.567425 -49.980728 23.489868
21.102205 -49.980728 23.085907
22.811293 -49.980728 22.835762
24.697111 -49.980728 22.750023
-18.552891 -49.980732 37.900024
-21.702890 -49.980732 37.900024
-31.336285 -49.980736 38.651875
-28.351267 -49.980736 33.523575
-33.364288 -49.980736 33.977341
-28.219093 -49.980736 34.242615
-28.115391 -49.980736 30.680489
-33.284142 -49.980736 30.660675
-28.288540 -49.980736 31.349327
-26.471411 -49.980736 28.421806
-32.417732 -49.980736 28.169525
-27.040392 -49.980736 28.906273
-24.971642 -49.980736 27.666428
-31.971640 -49.980736 27.437523
-25.784374 -49.980736 28.005577
-18.552891 -49.980736 22.800026
-30.852892 -49.980736 26.131508
-31.449503 -49.980736 26.757607
-30.183359 -49.980736 25.560959
-29.442472 -49.980736 25.047707
-28.631798 -49.980736 24.593483
-27.752892 -49.980736 24.200020
-24.377890 -49.980736 21.525024
-30.523266 -49.980736 21.783356
-23.703297 -49.980736 21.992729
-28.577257 -49.980736 16.623985
-34.102432 -49.980740 16.783356
-33.504456 -49.980740 17.731270
-34.152893 -49.980736 8.000023
-35.704109 -49.980736 14.185616
-35.352890 -49.980736 14.750023
-36.037613 -49.980736 13.659744
-36.360703 -49.980736 13.160957
-36.680672 -49.980736 12.677803
-37.004799 -49.980736 12.198807
-37.340393 -49.980736 11.712524
-37.694733 -49.980736 11.207489
-38.075111 -49.980736 10.672249
-38.488831 -49.980736 10.095337
-38.943169 -49.980736 9.465302
-39.445427 -49.980736 8.770683
-40.002899 -49.980736 8.000023
49.980217 -13.227049 34.550003
49.980217 -13.327049 34.550003
49.980217 -12.927048 42.100006
49.980217 -35.127048 34.549995
49.980217 -35.227051 34.549995
49.980217 -40.127052 42.100006
49.980217 -8.327049 8.000000
49.980217 -13.227049 7.999996
49.980217 -17.327049 74.849998
49.980217 -22.927050 75.949997
49.980217 -17.327049 76.500000
-25.563135 49.981194 42.393665
-22.041174 49.981194 42.535908
-23.018345 49.981194 42.550003
-21.100983 49.981194 42.491436
-20.184750 49.981194 42.413280
-19.279455 49.981194 42.298149
-27.985010 49.981194 41.936810
-18.372076 49.981194 42.142738
-17.449594 49.981194 41.943752
-16.498987 49.981194 41.697887
-30.265221 49.981194 41.197659
-15.507232 49.981194 41.401852
-14.461311 49.981197 41.052345
-32.385010 49.981197 40.194447
-12.154888 49.981197 40.179714
-13.348204 49.981197 40.646065
-34.325638 49.981197 38.945400
-23.118341 49.981197 38.050003
-10.868343 49.981197 39.650002
-22.092417 49.981197 38.026100
-21.065104 49.981197 37.954628
-20.037094 49.981197 37.835938
-19.009085 49.981197 37.670368
-17.981771 49.981197 37.458275
-16.955843 49.981197 37.199997
-15.932001 49.981197 36.895889
-14.910934 49.981197 36.546291
-13.893343 49.981197 36.151562
-12.879916 49.981197 35.712036
-11.871351 49.981197 35.228065
-10.868343 49.981197 34.700005
-37.594383 49.981197 35.782730
-31.212383 49.981197 35.389412
-29.816492 49.981197 36.311115
-38.885010 49.981194 33.905556
-33.570137 49.981197 33.056427
-32.468346 49.981197 34.300003
-40.685013 49.981194 29.650696
-35.808159 49.981194 28.536110
-35.254280 49.981194 30.160942
-39.951935 49.981194 17.928123
-34.490562 49.981194 18.264816
-35.251152 49.981194 19.770317
-37.666000 49.981197 14.089005
-31.104628 49.981197 14.612213
-32.405846 49.981197 15.675003
-15.657000 49.981197 13.215889
-10.168341 49.981197 10.349998
-15.068341 49.981197 13.400002
-16.248434 49.981197 13.039581
-16.843342 49.981197 12.872658
-17.442415 49.981197 12.716667
-18.046350 49.981197 12.573181
-18.655842 49.981197 12.443748
-19.271582 49.981197 12.329948
-19.894266 49.981197 12.233337
-20.524591 49.981197 12.155472
-34.440475 49.981197 11.019325
-22.468344 49.981197 12.050003
-24.441435 49.981197 12.159668
-21.163248 49.981197 12.097916
-21.810934 49.981197 12.062241
-30.412874 49.981197 8.846878
-13.451153 49.981197 9.068748
-12.381302 49.981197 9.448151
-14.505378 49.981197 8.735184
-28.141260 49.981197 8.137039
-15.550573 49.981197 8.446068
-16.593340 49.981197 8.199997
-17.640274 49.981197 7.995605
-25.720688 49.981197 7.699417
-18.697971 49.981197 7.831482
-19.773029 49.981197 7.706253
-20.872046 49.981197 7.618515
-23.168343 49.981197 7.550003
-22.001617 49.981197 7.566895
-49.981293 34.032516 33.943756
-49.981293 39.452129 34.887535
-49.981293 32.791920 35.022781
-49.981293 36.572361 29.916410
-49.981293 41.387199 31.110159
-49.981293 35.919785 31.374075
-49.981293 36.829384 21.301563
-49.981293 41.891769 20.748848
-49.981293 37.160984 22.654631
-49.981293 34.738758 17.149998
-49.981293 40.258671 16.740746
-49.981293 35.639111 18.505154
-49.981293 30.566887 13.785938
-49.981293 37.620014 13.243748
-49.981293 32.223484 14.746296
-49.981293 11.051260 8.000000
-49.981293 23.751261 12.400005
-49.981293 15.951262 12.400005
-49.981293 31.925478 9.433598
-49.981293 34.043854 10.475925
-49.981293 29.598251 8.655323
-49.981293 27.070679 8.168377
-49.981293 24.351261 8.000004
-49.981293 -24.295935 42.394447
-49.981293 -20.772091 42.532150
-49.981293 -21.648741 42.550003
-49.981293 -19.889713 42.478012
-49.981293 -18.997961 42.386723
-49.981293 -26.801289 41.938892
-49.981293 -18.093185 42.257408
-49.981293 -17.171745 42.089211
-49.981293 -16.229992 41.881252
-49.981293 -29.147963 41.200005
-49.981293 -15.264280 41.632668
-49.981293 -14.270964 41.342598
-49.981293 -13.246399 41.010162
-49.981293 -31.319113 40.194447
-49.981293 -11.088932 40.214729
-49.981293 -12.186935 40.634491
-49.981293 -33.297901 38.938892
-49.981293 -21.698740 38.050003
-49.981293 -9.948740 39.750000
-49.981293 -20.717981 38.026939
-49.981293 -19.748510 37.957176
-49.981293 -18.787022 37.839844
-49.981293 -17.830221 37.674072
-49.981293 -16.874811 37.459000
-49.981293 -15.917490 37.193748
-49.981293 -14.954962 36.877457
-49.981293 -13.983925 36.509262
-49.981293 -13.001083 36.088280
-49.981293 -12.003138 35.613663
-49.981293 -10.986790 35.084518
-49.981293 -9.948740 34.500000
-49.981293 -36.611042 35.744446
-49.981293 -30.132193 35.419796
-49.981293 -28.691336 36.333336
-49.981293 -37.911705 33.838890
-49.981293 -32.552792 33.098953
-49.981293 -31.423740 34.337505
-49.981293 -39.717030 29.494448
-49.981293 -34.833000 28.570833
-49.981293 -34.270618 30.203127
-49.981293 -37.316334 15.114094
-49.981293 -31.473742 15.656254
-49.981293 -32.599091 16.874859
-49.981293 -10.568125 15.299080
-49.981293 -9.598738 10.550003
-49.981293 -9.598740 15.900002
-49.981293 -11.549665 14.746765
-49.981293 -12.540926 14.243752
-49.981293 -35.948742 13.368755
-49.981293 -28.720964 13.707409
-49.981293 -30.177561 14.597019
-49.981293 -13.539482 13.790737
-49.981293 -14.542898 13.388424
-49.981293 -15.548742 13.037502
-49.981293 -16.554588 12.738659
-49.981293 -34.314484 11.772366
-49.981293 -25.368187 12.478008
-49.981293 -27.114367 12.997662
-49.981293 -17.558002 12.492596
-49.981293 -18.556557 12.299999
-49.981293 -23.492842 12.158710
-49.981293 -19.547817 12.161572
-49.981293 -20.529360 12.078007
-49.981293 -21.498741 12.049999
-49.981293 -30.223743 9.200779
-49.981293 -12.189363 9.342972
-49.981293 -11.305220 9.720139
-49.981293 -27.756151 8.312733
-49.981293 -14.043762 8.677166
-49.981293 -13.100590 8.994442
-49.981293 -15.023739 8.393749
-49.981293 -16.045382 8.146786
-49.981293 -24.999670 7.747944
-49.981293 -17.113554 7.938892
-49.981293 -18.233116 7.772655
-49.981293 -19.408926 7.650692
-49.981293 -21.948742 7.549999
-49.981293 -20.645849 7.575611
-49.981293 18.901258 87.700005
-49.981293 27.231119 91.754173
-49.981293 25.651867 92.010941
-49.981293 25.404501 87.525238
-49.981293 33.312370 87.566673
-49.981293 24.463644 87.655243
-49.981293 26.943851 87.035187
-49.981293 33.794228 86.573441
-49.981293 26.229385 87.316406
-49.981293 27.553459 86.687988
-49.981293 28.063761 86.281250
-49.981293 28.808670 85.314819
-49.981293 34.133900 85.537506
-49.981293 28.480312 85.821381
-49.981293 29.223022 84.187271
-49.981293 34.335026 84.474480
-49.981293 29.054388 84.767975
-49.981293 26.922527 78.441116
-49.981293 32.667255 78.384148
-49.981293 27.570011 78.856247
-49.981293 24.368622 77.650238
-49.981293 31.511414 77.353127
-49.981293 25.322353 77.838287
-49.981293 23.311762 77.537529
-49.981293 22.151258 77.500000
-49.981293 14.001259 58.000000
-49.981293 18.901258 73.100006
-49.981293 18.901258 77.500000
-49.981293 30.819080 76.897690
-49.981293 30.049320 76.480438
-49.981293 29.201258 76.100006
-49.981293 29.201258 76.000000
-49.981293 30.433952 75.713165
-49.981293 31.579494 75.330322
-49.981293 18.901258 62.400002
-49.981293 29.831789 72.048210
-49.981293 35.866245 72.115768
-49.981293 29.047560 72.414818
-49.981293 31.075945 71.112213
-49.981293 36.408665 71.240746
-49.981293 30.507513 71.612503
-49.981293 31.895796 69.935944
-49.981293 36.837196 70.297661
-49.981293 31.538301 70.551849
-49.981293 32.351257 67.800003
-49.981293 37.337315 68.223297
-49.981293 32.301060 68.555496
-49.981293 31.736444 65.266670
-49.981293 37.128338 64.967598
-49.981293 32.019230 65.880470
-49.981293 30.857506 64.143753
-49.981293 36.775475 63.906250
-49.981293 31.352270 64.684120
-49.981293 25.051258 62.400002
-49.981293 33.739017 60.146992
-49.981293 34.757507 60.974998
-49.981293 32.534592 59.425926
-49.981293 31.136415 58.831249
-49.981293 29.536676 58.382408
-49.981293 27.727564 58.098843
-49.981293 25.701260 58.000000
-49.981293 -41.748741 58.000000
-49.981293 -30.548744 72.450005
-49.981293 -25.448744 84.800003
-49.981293 -32.448746 68.050003
-49.981293 -36.748741 58.000000
-11.289230 49.981197 9.874771
-32.518341 49.981197 9.812965
-26.303066 49.981197 12.481483
-36.162094 49.981197 12.449997
-29.646120 49.981197 13.718521
-33.538307 49.981194 16.896126
-38.935013 49.981194 15.920372
-35.808617 49.981194 21.401855
-40.699593 49.981194 20.096298
-36.151505 49.981194 23.148674
-41.160789 49.981194 22.408913
-41.156891 49.981194 27.309464
-41.318344 49.981194 24.849998
-36.268341 49.981194 25.000000
-36.150925 49.981194 26.811287
-39.921471 49.981194 31.855469
-34.503532 49.981197 31.672226
-36.068344 49.981197 37.468750
-28.294905 49.981197 37.051567
-24.931597 49.981197 37.934555
-10.168341 49.981197 24.800003
-15.068341 49.981197 20.400002
-21.618341 49.981197 24.800003
-21.618341 49.981194 20.400002
8.646651 8.541162 99.980011
23.396654 42.941166 99.980011
13.546652 8.541162 99.980011
24.396652 42.941166 99.980011
-10.057603 31.267759 99.980011
-15.021864 31.355982 99.980011
-16.593420 35.388069 99.980011
-11.625572 36.543018 99.980011
-17.414747 36.220882 99.980011
-34.903351 39.903667 99.980011
-15.087288 40.418278 99.980011
-33.507286 40.894989 99.980011
-16.664457 41.355984 99.980011
-33.783760 33.568481 99.980011
-38.751495 33.959221 99.980011
-34.216309 31.872646 99.980011
-39.161446 31.957485 99.980011
-34.103142 32.490932 99.980011
-39.303352 8.541162 99.980011
-34.403343 8.541162 99.980011
-34.359131 30.438850 99.980011
-14.891079 29.932602 99.980011
-14.853348 8.541166 99.980011
-9.953347 8.541166 99.980011
21.296652 -37.058834 99.980011
21.296652 -7.358829 99.980011
26.196653 -7.358829 99.980011
26.196653 -37.058834 99.980011
9.496653 -41.458832 99.980011
9.496653 -37.058834 99.980011
37.996651 -37.058834 99.980011
37.996651 -41.458832 99.980011
-32.358986 -38.592541 99.980011
-34.020706 -35.409988 99.980011
-28.729128 -36.003105 99.980011
-29.402567 -35.104145 99.980011
-34.353348 -32.808834 99.980011
-29.803347 -33.458836 99.980011
-33.260757 -28.777815 99.980011
-27.498659 -29.518211 99.980011
-30.529274 -25.760687 99.980011
-22.428347 -26.421335 99.980011
-28.805025 -24.503857 99.980011
-20.601667 -25.291357 99.980011
-26.978346 -23.346333 99.980011
-18.877419 -24.010685 99.980011
-25.151669 -22.236727 99.980011
-17.358032 -22.518208 99.980011
-19.603346 -15.608831 99.980011
-15.053347 -16.158833 99.980011
-19.639978 -15.125092 99.980011
-19.750570 -14.630590 99.980011
-15.378807 -13.616007 99.980011
-15.136214 -14.852957 99.980011
-20.197790 -13.649572 99.980011
-33.437401 -9.545204 99.980011
-32.713303 -9.078972 99.980011
-18.671635 -8.762854 99.980011
-17.765848 -9.527580 99.980011
36.597115 -49.980713 92.100021
40.497108 -49.980713 92.100021
13.497110 -49.980721 92.100021
8.897110 -49.980721 92.100021
-16.831797 -49.980724 91.144562
-34.110298 -49.980732 90.124100
-14.697336 -49.980724 90.112991
-36.040535 -49.980732 88.853554
-35.904747 -49.980732 81.753723
-41.417740 -49.980736 81.792213
-37.537300 -49.980736 76.881332
-42.556686 -49.980736 77.390015
-37.652893 -49.980736 75.050026
-37.537300 -49.980736 73.229218
-42.560440 -49.980736 72.773056
-42.702888 -49.980736 75.050026
-37.198959 -49.980736 71.500259
-42.138306 -49.980736 70.559280
-36.650543 -49.980736 69.875809
-41.444298 -49.980736 68.434395
-14.578815 -49.980728 60.031506
-34.169556 -49.980732 60.042614
-16.705233 -49.980728 58.983616
-32.008362 -49.980732 58.990646
-12.104452 -49.980732 69.875809
-7.328671 -49.980732 68.413307
-11.556595 -49.980732 71.500259
-6.626732 -49.980724 70.541924
-6.052890 -49.980724 75.050026
-6.198058 -49.980724 72.762550
-11.218458 -49.980732 73.229218
-11.102891 -49.980732 75.050026
-6.201937 -49.980724 77.379509
-11.218457 -49.980724 76.881332
-7.358360 -49.980724 81.771118
-12.849186 -49.980724 81.753723
-11.059141 -49.980724 87.343781
-19.076330 -49.980724 87.073456
-22.495657 -49.980732 87.937469
22.268606 -49.980728 42.010326
19.208828 -49.980728 41.328152
20.656599 -49.980728 41.749100
16.796965 -49.980728 40.054306
17.923035 -49.980724 40.759285
15.828361 -49.980728 39.225025
22.998184 -49.980724 37.645454
14.354519 -49.980728 37.240765
21.263517 -49.980724 37.239086
20.565630 -49.980728 36.907433
13.844769 -49.980728 36.109398
19.478361 -49.980728 36.037521
19.076828 -49.980728 35.519409
13.483454 -49.980728 34.900948
18.527580 -49.980728 34.367210
18.247112 -49.980728 32.500023
18.295464 -49.980728 31.680519
13.272516 -49.980728 30.988243
13.197113 -49.980728 32.300026
22.535309 -49.980728 27.310211
15.122749 -49.980728 26.432114
15.984613 -49.980728 25.518776
29.797112 -49.980724 27.150024
34.697113 -49.980724 8.000023
29.797112 -49.980724 8.000023
24.247110 -49.980728 27.150024
34.697113 -49.980728 42.100025
24.047112 -49.980728 42.100025
-23.922743 -49.980736 42.024796
-26.913830 -49.980736 41.437527
-25.478357 -49.980736 41.802341
-29.400753 -49.980732 40.300255
-28.223263 -49.980732 40.935211
-30.440393 -49.980736 39.537525
-22.831594 -49.980732 37.859806
-32.082520 -49.980736 37.648170
-24.746641 -49.980732 37.545338
-25.539927 -49.980732 37.275951
-32.673203 -49.980736 36.531273
-26.815390 -49.980732 36.525024
-27.304510 -49.980736 36.048347
-33.102432 -49.980736 35.306046
-28.002888 -49.980736 34.904716
-28.402889 -49.980736 32.750023
-28.381826 -49.980736 32.042122
-33.410446 -49.980736 31.583649
-33.452888 -49.980736 32.550026
-27.854744 -49.980736 30.044464
-33.075546 -49.980736 29.782837
-27.498957 -49.980736 29.450111
-32.786217 -49.980736 28.951874
-24.025578 -49.980736 27.413216
-29.211691 -49.980736 23.083359
-28.503994 -49.980736 23.664604
-21.220194 -49.980736 22.780235
-21.828817 -49.980736 22.708359
-29.882582 -49.980736 22.456276
-23.060299 -49.980736 22.333359
-25.094152 -49.980736 20.911484
-31.140337 -49.980736 21.064606
-25.862150 -49.980736 20.133354
-31.740393 -49.980736 20.300026
-26.691956 -49.980736 19.171898
-32.330032 -49.980736 19.489609
-27.593634 -49.980736 18.008354
-32.915855 -49.980740 18.633354
-29.652891 -49.980736 15.000023
-34.716377 -49.980736 15.789604
-18.552891 -49.980732 27.200020
-13.652891 -49.980732 8.000023
-18.552891 -49.980732 8.000023
-21.702890 -49.980736 27.200020
-13.652891 -49.980736 42.100025
-22.252892 -49.980736 42.100025
49.980217 -35.227047 8.000004
49.980217 -40.127052 8.000000
49.980217 -24.227051 28.100002
49.980217 -23.827049 21.350002
49.980217 -24.627050 21.350002
49.980217 -8.327049 42.100002
49.980217 -35.577053 42.099998
49.980217 28.722958 12.399998
49.980217 33.622959 7.999996
49.980217 13.322956 7.999996
49.980217 13.322956 12.399998
49.980217 33.622955 42.099998
49.980217 28.722958 42.100002
49.980217 -12.427050 58.000000
49.980217 -17.327049 57.999996
49.980217 -34.677052 58.000000
49.980217 -41.427048 57.999996
49.980217 -12.427050 92.100006
49.980217 -17.327049 92.100006
49.980217 -31.677050 92.100006
49.980217 -37.777054 92.100006
49.980217 27.522951 92.100006
49.980217 27.522949 58.000000
49.980217 22.622950 58.000000
49.980217 22.622950 92.100006
-34.068344 49.981194 92.100006
-34.068344 49.981197 58.000000
-29.168344 49.981194 77.400002
-29.168344 49.981197 87.699997
-14.718346 49.981197 87.699997
-14.718346 49.981194 92.100006
-29.168344 49.981194 73.000000
-15.218342 49.981197 73.000000
-15.218342 49.981197 77.400002
-29.168344 49.981197 62.400002
-14.268345 49.981197 58.000000
-14.268345 49.981197 62.400002
16.981655 49.981201 92.100006
16.981655 49.981201 58.000000
21.881655 49.981197 78.250000
21.881655 49.981205 87.699997
35.181656 49.981205 87.699997
35.181656 49.981201 92.100006
21.881655 49.981197 73.849998
35.181656 49.981205 73.849998
35.181656 49.981205 78.250000
21.881655 49.981201 58.000000
-28.041780 49.981197 13.004684
-26.661861 49.981197 37.597229
34.931656 49.981201 27.250000
34.931656 49.981201 22.849998
34.931656 49.981201 8.000000
39.831657 49.981201 8.000000
15.831655 49.981197 27.250000
10.931654 49.981201 8.000000
15.831655 49.981201 8.000000
15.831655 49.981197 22.849998
10.931654 49.981197 42.100002
15.831655 49.981197 42.100002
34.931656 49.981197 42.100002
39.831657 49.981197 42.100002
-49.981293 11.051262 42.100006
-49.981293 15.951263 37.700005
-49.981293 27.305252 41.918266
-49.981293 24.301262 42.100006
-49.981293 32.452824 40.567974
-49.981293 30.020704 41.396069
-49.981293 36.487892 38.132271
-49.981293 34.606815 39.468521
-49.981293 25.780918 37.581921
-49.981293 27.846863 37.238663
-49.981293 38.101261 36.593758
-49.981293 31.349411 35.942593
-49.981293 35.074154 32.722023
-49.981293 40.545704 33.048157
-49.981293 37.034832 28.365515
-49.981293 41.981815 29.108107
-49.981293 37.310146 26.737883
-49.981293 42.334770 27.076536
-49.981293 37.401264 25.050001
-49.981293 37.344666 23.918814
-49.981293 42.309971 22.876417
-49.981293 42.451260 25.050001
-49.981293 36.329041 19.903706
-49.981293 41.205166 18.694534
-49.981293 33.607162 15.882351
-49.981293 39.060783 14.914734
-49.981293 28.616539 13.045368
-49.981293 35.944866 11.755062
-49.981293 -35.067493 37.450005
-49.981293 -23.604877 37.936459
-49.981293 -27.114368 37.065624
-49.981293 -38.952648 31.750002
-49.981293 -33.506149 31.716669
-49.981293 -40.188007 27.088892
-49.981293 -35.180111 26.832293
-49.981293 -40.348743 24.550005
-49.981293 -35.298740 25.000002
-49.981293 -40.231148 22.713518
-49.981293 -35.183811 23.138170
-49.981293 -39.874668 20.808105
-49.981293 -34.845963 21.384495
-49.981293 -39.273746 18.877342
-49.981293 -34.295616 19.749226
-49.981293 -38.422817 16.964813
-49.981293 -33.543186 18.242596
-49.981293 -32.408001 10.368519
-49.981293 -10.443298 10.123352
-49.981293 14.001259 92.100006
-49.981293 23.901258 92.100006
-49.981293 29.890148 90.800003
-49.981293 28.642666 91.345322
-49.981293 31.907507 89.362503
-49.981293 30.977213 90.133858
-49.981293 23.401258 87.700005
-49.981293 32.684681 88.501572
-49.981293 29.320129 83.579140
-49.981293 29.351261 82.950005
-49.981293 34.366734 82.538315
-49.981293 34.401260 83.400002
-49.981293 29.302216 82.076012
-49.981293 34.262596 81.727318
-49.981293 29.154734 81.278938
-49.981293 34.087975 80.965622
-49.981293 28.908291 80.558594
-49.981293 33.841999 80.251854
-49.981293 28.562370 79.914818
-49.981293 33.523792 79.584610
-49.981293 28.116451 79.347427
-49.981293 33.132507 78.962502
-49.981293 26.173481 78.101852
-49.981293 32.127182 77.848152
-49.981293 33.593853 74.292595
-49.981293 32.634068 74.855469
-49.981293 24.801258 73.100006
-49.981293 34.455021 73.645691
-49.981293 26.031670 73.054924
-49.981293 35.213757 72.918755
-49.981293 28.153606 72.707817
-49.981293 32.149643 69.268982
-49.981293 37.148018 69.290512
-49.981293 32.317432 67.158073
-49.981293 32.209824 66.514587
-49.981293 37.334328 66.038658
-49.981293 37.401257 67.100006
-49.981293 30.242952 63.656513
-49.981293 36.267925 62.874077
-49.981293 28.617662 62.885159
-49.981293 27.588526 62.622917
-49.981293 35.597874 61.890511
-49.981293 -17.948742 68.050003
-49.981293 -19.948742 72.449997
-49.981293 -27.098742 92.300003
-49.981293 -23.648745 92.300003
-49.981293 -8.398741 58.000004
-14.943191 30.659134 99.980011
-17.003347 35.841167 99.980011
-33.959595 33.053665 99.980011
-34.301003 31.191166 99.980011
-29.103346 -35.575500 99.980011
-19.936159 -14.135395 99.980011
-20.732521 -49.980724 87.607895
22.072344 -49.980724 37.488449
19.972603 -49.980728 36.503551
18.761927 -49.980728 34.959282
23.362307 -49.980728 27.190361
-23.845020 -49.980732 37.740765
-26.228354 -49.980732 36.935036
-27.699186 -49.980736 35.507431
-22.938540 -49.980736 27.254799
-20.602890 -49.980736 22.800026
-22.438828 -49.980736 22.565651
-49.981293 23.501261 37.700005
-49.981293 29.702044 36.686722
-49.981293 26.351608 12.568691
-49.981293 -25.414484 37.604168
-49.981293 27.148712 72.922684
-49.981293 29.499405 63.233334
-49.981293 26.402788 62.457554
-49.981293 -13.398743 58.000000
3 0 1 2
3 3 4 5
3 6 7 8
3 9 10 11
3 12 13 14
3 15 13 12
3 16 17 18
3 19 13 15
3 16 20 17
3 16 21 20
3 16 22 21
3 23 24 25
3 23 26 24
3 27 28 29
3 30 28 27
3 23 31 26
3 32 28 30
3 33 28 32
3 34 35 36
3 34 37 35
3 38 39 40
3 34 41 37
3 42 39 38
3 34 43 41
3 44 39 42
3 34 45 43
3 46 39 44
3 34 47 45
3 48 39 46
3 34 48 47
3 34 39 48
3 49 50 51
3 49 52 50
3 53 52 49
3 53 54 52
3 55 54 53
3 55 56 54
3 57 58 59
3 57 60 58
3 57 61 60
3 62 61 57
3 62 63 61
3 62 64 63
3 65 64 62
3 65 66 64
3 65 67 66
3 68 69 70
3 71 72 73
3 74 75 76
3 75 77 76
3 77 78 76
3 78 79 76
3 79 80 76
3 80 81 76
3 81 82 76
3 82 83 76
3 83 84 76
3 84 85 76
3 85 86 76
3 86 87 76
3 87 88 76
3 89 75 90
3 91 92 93
3 91 94 92
3 91 95 94
3 91 96 95
3 97 98 99
3 100 101 102
3 103 104 105
3 106 107 108
3 109 110 111
3 112 113 114
3 112 115 113
3 112 116 115
3 112 117 116
3 112 118 117
3 119 120 121
3 112 122 118
3 112 123 122
3 124 125 126
3 112 127 123
3 128 125 124
3 112 129 127
3 130 125 128
3 112 131 129
3 112 132 131
3 133 134 135
3 112 133 132
3 112 134 133
3 136 137 138
3 139 140 141
3 142 140 139
3 142 143 140
3 144 143 142
3 145 143 144
3 145 146 143
3 147 146 145
3 148 146 147
3 148 149 146
3 150 151 152
3 153 154 155
3 156 157 158
3 159 157 156
3 160 159 156
3 160 161 159
3 162 163 164
3 165 163 162
3 166 163 165
3 167 163 166
3 168 169 170
3 171 172 173
3 174 175 176
3 177 178 179
3 180 181 182
3 183 184 185
3 186 187 188
3 189 190 191
3 192 193 194
3 195 196 197
3 198 199 200
3 201 202 203
3 204 205 206
3 207 208 209
3 204 210 205
3 210 208 207
3 204 208 210
3 211 212 213
3 214 212 211
3 214 215 212
3 216 217 218
3 219 220 221
3 222 223 224
3 225 226 227
3 228 229 230
3 231 229 228
3 232 229 231
3 233 234 235
3 233 236 234
3 233 237 236
3 233 238 237
3 233 239 238
3 240 241 242
3 243 244 245
3 246 247 248
3 249 250 251
3 252 253 254
3 255 256 257
3 255 258 256
3 255 259 258
3 255 260 259
3 255 261 260
3 262 263 264
3 265 266 267
3 268 269 270
3 268 271 269
3 268 272 271
3 268 273 272
3 268 274 273
3 268 275 274
3 268 276 275
3 268 277 276
3 268 278 277
3 268 279 278
3 268 280 279
3 268 281 280
3 282 283 284
3 285 286 287
3 288 289 282
3 290 291 292
3 293 294 295
3 293 296 294
3 293 297 296
3 293 298 297
3 299 298 293
3 299 300 298
3 299 301 300
3 299 302 301
3 303 302 299
3 303 304 302
3 303 305 304
3 306 307 308
3 309 310 311
3 310 312 311
3 312 313 311
3 313 314 311
3 314 315 311
3 315 316 311
3 316 317 311
3 317 318 311
3 318 319 311
3 319 320 311
3 320 321 311
3 321 322 311
3 322 323 311
3 324 325 326
3 327 328 329
3 330 331 332
3 333 334 335
3 336 337 338
3 339 340 341
3 342 340 339
3 343 340 342
3 344 340 343
3 345 340 344
3 346 340 345
3 347 340 346
3 348 340 347
3 349 340 348
3 350 351 352
3 353 340 349
3 354 340 353
3 351 340 354
3 350 340 351
3 355 356 357
3 355 358 356
3 359 358 355
3 359 360 358
3 359 361 360
3 359 362 361
3 363 362 359
3 363 364 362
3 363 365 364
3 363 366 365
3 367 366 363
3 367 368 366
3 369 370 371
3 372 373 374
3 375 376 377
3 378 379 380
3 381 382 383
3 384 385 386
3 384 387 388
3 384 389 387
3 384 390 389
3 384 391 390
3 392 393 394
3 392 395 393
3 392 396 395
3 397 396 392
3 397 398 396
3 397 399 398
3 397 400 399
3 401 400 397
3 401 402 400
3 401 403 402
3 401 404 403
3 405 406 407
3 408 409 410
3 409 411 410
3 411 412 410
3 412 413 410
3 413 414 410
3 414 415 410
3 415 416 410
3 416 417 410
3 417 418 410
3 418 419 410
3 419 420 410
3 420 421 410
3 421 422 410
3 423 424 425
3 426 427 428
3 429 430 431
3 432 433 434
3 435 436 437
3 438 436 435
3 439 436 438
3 440 441 442
3 443 436 439
3 444 436 443
3 445 436 444
3 446 436 445
3 447 448 449
3 450 436 446
3 451 436 450
3 447 452 448
3 453 436 451
3 454 436 453
3 447 455 452
3 455 436 454
3 447 436 455
3 456 457 458
3 459 460 461
3 459 462 460
3 459 463 462
3 464 463 459
3 464 465 463
3 464 466 465
3 464 467 466
3 468 467 464
3 468 469 467
3 470 471 472
3 473 474 475
3 476 477 478
3 479 477 476
3 480 477 479
3 481 482 483
3 484 485 486
3 487 488 489
3 490 491 492
3 493 491 490
3 494 491 493
3 495 496 497
3 496 498 491
3 496 499 498
3 496 500 499
3 496 501 500
3 496 502 501
3 496 503 502
3 495 504 496
3 505 506 507
3 508 509 510
3 511 512 513
3 514 515 516
3 517 518 519
3 520 521 522
3 495 523 504
3 495 524 525
3 495 526 524
3 495 527 526
3 495 528 527
3 495 529 528
3 495 530 529
3 531 532 533
3 531 534 532
3 531 535 534
4 536 537 355 357
4 350 537 536 340
4 538 539 350 352
4 337 336 539 540
4 541 542 336 338
4 334 333 542 541
4 543 544 333 335
4 545 546 544 543
4 547 548 549 550
4 549 548 546 545
4 330 547 550 331
4 551 330 332 552
4 327 551 552 328
4 324 327 329 325
4 553 324 326 554
4 309 553 555 310
4 306 309 311 307
4 303 306 308 305
4 556 557 341 340
4 558 559 557 556
4 560 561 0 562
4 561 563 1 0
4 9 14 13 10
4 564 565 11 10
4 19 566 567 13
4 568 29 28 567
4 33 40 39 28
4 34 569 570 39
4 569 571 572 570
4 571 51 50 572
4 31 23 34 36
4 22 16 23 25
4 573 574 16 18
4 575 576 574 577
4 578 6 8 579
4 7 6 576 580
4 3 581 564 4
4 582 5 4 583
4 584 585 586 587
4 588 589 590 591
4 74 592 90 75
4 90 91 93 89
4 91 593 594 96
4 593 97 99 595
4 97 596 597 98
4 597 596 100 102
4 101 100 598 599
4 599 598 103 105
4 104 103 600 601
4 601 600 602 603
4 603 602 604 605
4 605 604 606 607
4 607 606 108 107
4 107 106 111 110
4 110 109 608 609
4 610 611 612 613
4 609 608 610 613
4 614 121 120 612
4 119 126 125 120
4 130 135 134 125
4 615 616 617 618
4 134 112 615 618
4 616 138 137 617
4 136 141 140 137
4 71 74 76 72
4 68 71 73 69
4 65 68 70 67
4 619 152 153 155
4 620 150 152 619
4 621 155 154 622
4 160 623 624 161
4 623 625 626 624
4 625 164 163 626
4 163 167 170 169
4 169 168 176 175
4 175 174 627 628
4 628 627 182 181
4 181 180 629 630
4 631 632 633 634
4 630 629 631 634
4 632 635 636 633
4 635 637 638 636
4 637 191 190 638
4 189 197 196 190
4 195 203 202 196
4 201 209 208 202
4 208 204 639 640
4 640 639 641 642
4 642 641 211 213
4 199 198 204 206
4 193 192 198 200
4 187 186 192 194
4 643 644 186 188
4 645 646 644 643
4 647 648 649 650
4 649 648 646 645
4 651 647 650 652
4 183 651 652 184
4 653 183 185 654
4 177 653 654 178
4 171 177 179 172
4 655 171 173 656
4 164 655 657 162
4 658 216 659 660
4 659 216 661 662
4 661 216 218 663
4 218 217 664 665
4 665 666 667 668
4 668 669 670 671
4 671 672 221 220
4 673 674 675 676
4 220 219 673 676
4 674 224 223 675
4 222 227 226 223
4 225 230 229 226
4 232 677 678 229
4 678 233 235 679
4 680 681 682 233
4 680 233 678 683
4 684 681 680 216
4 684 216 658 685
4 686 240 687 688
4 687 240 689 690
4 689 240 242 691
4 242 241 692 693
4 693 694 695 696
4 696 697 698 699
4 699 700 245 244
4 701 702 703 704
4 244 243 701 704
4 702 248 247 703
4 246 705 706 247
4 705 707 708 706
4 707 251 250 708
4 249 254 253 250
4 252 709 257 253
4 261 255 710 711
4 710 712 713 714
4 714 715 264 263
4 263 262 716 717
4 717 716 718 719
4 719 718 720 721
4 721 720 722 723
4 723 722 265 267
4 266 265 724 725
4 725 724 268 270
4 726 727 728 255
4 726 255 257 729
4 730 727 726 240
4 730 240 686 731
4 287 286 732 733
4 285 734 735 736
4 284 283 735 734
4 737 288 282 284
4 738 734 285 287
4 739 740 741 742
4 743 740 739 744
4 292 745 746 290
4 291 290 747 748
4 749 745 292 750
4 751 292 291 752
4 753 754 755 756
4 757 758 759 760
4 757 760 761 762
4 759 763 764 765
4 766 758 767 768
4 769 770 771 772
4 769 772 773 774
4 771 775 776 777
4 771 770 778 775
4 540 539 538 779
4 555 553 554 780
4 781 782 783 784
4 785 786 787 788
4 785 788 782 781
4 789 786 785 790
4 791 781 784 792
4 793 794 795 796
4 795 794 797 798
4 797 794 799 800
4 799 801 802 803
4 803 804 371 370
4 370 369 805 806
4 806 805 374 373
4 373 372 807 808
4 808 807 809 810
4 811 812 813 814
4 810 809 811 814
4 812 377 376 813
4 375 815 816 376
4 815 380 379 816
4 378 817 818 379
4 817 383 382 818
4 381 819 820 382
4 385 384 388 820
4 793 384 386 794
4 408 821 822 409
4 821 423 425 823
4 423 426 428 424
4 426 824 825 427
4 824 429 431 825
4 429 826 827 430
4 826 828 829 827
4 829 828 830 831
4 831 830 832 833
4 833 832 834 835
4 835 834 836 837
4 837 836 432 434
4 433 432 440 442
4 441 440 447 449
4 447 838 839 436
4 838 456 458 839
4 457 456 459 461
4 401 405 407 404
4 406 405 408 410
4 840 470 472 841
4 471 470 842 843
4 842 470 844 845
4 844 470 846 847
4 847 846 475 474
4 474 473 478 477
4 477 480 483 482
4 482 481 486 485
4 848 849 850 851
4 485 484 848 851
4 849 852 853 850
4 852 854 855 853
4 854 856 857 855
4 856 858 859 857
4 858 860 861 859
4 860 489 488 861
4 487 862 863 488
4 862 492 491 863
4 503 496 864 865
4 864 496 866 867
4 867 866 868 869
4 869 870 507 506
4 506 505 510 509
4 509 508 513 512
4 512 511 871 872
4 872 871 516 515
4 873 874 875 876
4 515 514 873 876
4 874 519 518 875
4 517 522 521 518
4 520 877 878 521
4 879 880 881 878
4 523 495 525 881
4 840 495 497 470
4 497 496 491 494
4 532 534 882 883
4 884 531 533 885
4 885 533 883 886
4 581 887 565 564
4 566 888 568 567
4 577 574 573 889
4 580 576 575 890
4 589 584 587 590
4 594 593 595 891
4 611 892 614 612
4 657 655 656 893
4 664 894 666 665
4 667 895 669 668
4 670 896 672 671
4 677 897 683 678
4 692 898 694 693
4 695 899 697 696
4 698 900 700 699
4 709 901 729 257
4 255 902 712 710
4 713 903 715 714
4 759 758 766 763
4 794 904 801 799
4 802 905 804 803
4 819 906 385 820
4 822 821 823 907
4 868 908 870 869
4 877 909 879 878
4 880 910 523 881
4 883 882 911 886
