ply
format ascii 1.0
comment Created by Blender 2.79 (sub 0) - www.blender.org, source file: 'bmps.blend'
element vertex 118
property float x
property float y
property float z
property float nx
property float ny
property float nz
element face 36
property list uchar uint vertex_indices
end_header
-38.718403 -26.530254 26.036156 0.876233 0.411436 -0.250870
-38.488888 -27.019053 26.036156 0.876233 0.411436 -0.250870
-38.979385 -27.249369 23.945232 0.876233 0.411436 -0.250870
-39.208900 -26.760572 23.945230 0.876233 0.411436 -0.250870
-38.718403 -26.530254 26.036156 0.876232 0.411439 -0.250870
-39.208900 -26.760572 23.945230 0.876232 0.411439 -0.250870
-40.126968 -24.805386 23.945229 0.876232 0.411439 -0.250870
-39.636471 -24.575069 26.036154 0.876232 0.411439 -0.250870
-39.513847 -24.517488 26.558884 0.876232 0.411439 -0.250870
-38.595779 -26.472675 26.558884 0.876232 0.411439 -0.250870
-38.718403 -26.530254 26.036156 0.876234 0.411434 -0.250869
-38.595779 -26.472675 26.558884 0.876234 0.411434 -0.250869
-38.454300 -26.853668 26.428204 0.876234 0.411434 -0.250869
-38.488888 -27.019053 26.036156 0.876234 0.411434 -0.250869
-41.931637 -19.687099 26.036152 0.876232 0.411438 -0.250870
-39.636471 -24.575069 26.036154 0.876232 0.411438 -0.250870
-40.126968 -24.805386 23.945229 0.876232 0.411438 -0.250870
-42.422134 -19.917418 23.945229 0.876232 0.411438 -0.250870
-41.931637 -19.687099 26.036152 0.876232 0.411438 -0.250871
-42.422134 -19.917418 23.945229 0.876232 0.411438 -0.250871
-44.717300 -15.029449 23.945225 0.876232 0.411438 -0.250871
-44.226799 -14.799133 26.036150 0.876232 0.411438 -0.250871
-44.104176 -14.741554 26.558882 0.876232 0.411438 -0.250871
-41.809010 -19.629520 26.558884 0.876232 0.411438 -0.250871
-41.931637 -19.687099 26.036152 0.876232 0.411438 -0.250873
-41.809010 -19.629520 26.558884 0.876232 0.411438 -0.250873
-39.513847 -24.517488 26.558884 0.876232 0.411438 -0.250873
-39.636471 -24.575069 26.036154 0.876232 0.411438 -0.250873
-45.144867 -12.843947 26.036148 0.876232 0.411436 -0.250874
-45.374382 -12.355152 26.036146 0.876232 0.411436 -0.250874
-45.225033 -12.434167 26.428196 0.876232 0.411436 -0.250874
-45.022240 -12.786368 26.558880 0.876232 0.411436 -0.250874
-45.144867 -12.843947 26.036148 0.876232 0.411438 -0.250871
-45.022240 -12.786368 26.558880 0.876232 0.411438 -0.250871
-45.635365 -13.074263 23.945223 0.876232 0.411438 -0.250871
-45.144867 -12.843947 26.036148 0.876232 0.411439 -0.250871
-45.635365 -13.074263 23.945223 0.876232 0.411439 -0.250871
-45.864883 -12.585467 23.945221 0.876232 0.411439 -0.250871
-45.374382 -12.355152 26.036146 0.876232 0.411439 -0.250871
-40.435150 -27.336363 18.717920 0.876231 0.411441 -0.250870
-40.205631 -27.825159 18.717922 0.876231 0.411441 -0.250870
-41.431877 -28.400949 13.490610 0.876231 0.411441 -0.250870
-41.661396 -27.912153 13.490608 0.876231 0.411441 -0.250870
-40.435150 -27.336363 18.717920 0.876232 0.411437 -0.250870
-41.661396 -27.912153 13.490608 0.876232 0.411437 -0.250870
-42.579460 -25.956966 13.490606 0.876232 0.411437 -0.250870
-41.353214 -25.381176 18.717918 0.876232 0.411437 -0.250870
-40.435150 -27.336363 18.717920 0.876232 0.411438 -0.250871
-41.353214 -25.381176 18.717918 0.876232 0.411438 -0.250871
-40.126968 -24.805386 23.945229 0.876232 0.411438 -0.250871
-39.208900 -26.760572 23.945230 0.876232 0.411438 -0.250871
-38.979385 -27.249369 23.945232 0.876232 0.411438 -0.250871
-40.205631 -27.825159 18.717922 0.876232 0.411438 -0.250871
-43.648380 -20.493208 18.717916 0.876232 0.411438 -0.250870
-41.353214 -25.381176 18.717918 0.876232 0.411438 -0.250870
-42.579460 -25.956966 13.490606 0.876232 0.411438 -0.250870
-44.874626 -21.068998 13.490605 0.876232 0.411438 -0.250870
-47.169792 -16.181030 13.490603 0.876232 0.411438 -0.250870
-45.943546 -15.605240 18.717915 0.876232 0.411438 -0.250870
-44.717300 -15.029449 23.945225 0.876232 0.411438 -0.250870
-46.861610 -13.650053 18.717913 0.876232 0.411438 -0.250871
-45.943546 -15.605240 18.717915 0.876232 0.411438 -0.250871
-47.169792 -16.181030 13.490603 0.876232 0.411438 -0.250871
-48.087860 -14.225843 13.490602 0.876232 0.411438 -0.250871
-48.317375 -13.737047 13.490601 0.876232 0.411438 -0.250871
-47.091129 -13.161257 18.717911 0.876232 0.411438 -0.250871
-46.861610 -13.650053 18.717913 0.876230 0.411442 -0.250870
-47.091129 -13.161257 18.717911 0.876230 0.411442 -0.250870
-45.864883 -12.585467 23.945221 0.876230 0.411442 -0.250870
-45.635365 -13.074263 23.945223 0.876230 0.411442 -0.250870
-46.861610 -13.650053 18.717913 0.876232 0.411437 -0.250871
-45.635365 -13.074263 23.945223 0.876232 0.411437 -0.250871
-44.717300 -15.029449 23.945225 0.876232 0.411437 -0.250871
-45.943546 -15.605240 18.717915 0.876232 0.411437 -0.250871
-42.151894 -28.142471 11.399683 0.876233 0.411438 -0.250867
-41.922379 -28.631266 11.399685 0.876233 0.411438 -0.250867
-42.071724 -28.552252 11.007635 0.876233 0.411438 -0.250867
-42.274517 -28.200050 10.876951 0.876233 0.411438 -0.250867
-42.151894 -28.142471 11.399683 0.876232 0.411439 -0.250869
-42.274517 -28.200050 10.876951 0.876232 0.411439 -0.250869
-43.192585 -26.244864 10.876951 0.876232 0.411439 -0.250869
-43.069962 -26.187283 11.399683 0.876232 0.411439 -0.250869
-42.151894 -28.142471 11.399683 0.876232 0.411438 -0.250871
-43.069962 -26.187283 11.399683 0.876232 0.411438 -0.250871
-42.579460 -25.956966 13.490606 0.876232 0.411438 -0.250871
-41.661396 -27.912153 13.490608 0.876232 0.411438 -0.250871
-42.151894 -28.142471 11.399683 0.876231 0.411439 -0.250871
-41.661396 -27.912153 13.490608 0.876231 0.411439 -0.250871
-41.431877 -28.400949 13.490610 0.876231 0.411439 -0.250871
-41.922379 -28.631266 11.399685 0.876231 0.411439 -0.250871
-45.365124 -21.299314 11.399681 0.876231 0.411438 -0.250873
-43.069962 -26.187283 11.399683 0.876231 0.411438 -0.250873
-43.192585 -26.244864 10.876951 0.876231 0.411438 -0.250873
-45.487751 -21.356895 10.876950 0.876231 0.411438 -0.250873
-45.365124 -21.299314 11.399681 0.876232 0.411438 -0.250872
-45.487751 -21.356895 10.876950 0.876232 0.411438 -0.250872
-47.782913 -16.468925 10.876949 0.876232 0.411438 -0.250872
-47.660290 -16.411346 11.399681 0.876232 0.411438 -0.250872
-45.365124 -21.299314 11.399681 0.876232 0.411438 -0.250870
-47.660290 -16.411346 11.399681 0.876232 0.411438 -0.250870
-45.365124 -21.299314 11.399681 0.876232 0.411438 -0.250871
-44.874626 -21.068998 13.490605 0.876232 0.411438 -0.250871
-48.578358 -14.456160 11.399679 0.876232 0.411439 -0.250869
-47.660290 -16.411346 11.399681 0.876232 0.411439 -0.250869
-47.782913 -16.468925 10.876949 0.876232 0.411439 -0.250869
-48.700981 -14.513739 10.876949 0.876232 0.411439 -0.250869
-48.578358 -14.456160 11.399679 0.876234 0.411435 -0.250868
-48.700981 -14.513739 10.876949 0.876234 0.411435 -0.250868
-48.842461 -14.132746 11.007631 0.876234 0.411435 -0.250868
-48.807873 -13.967363 11.399677 0.876234 0.411435 -0.250868
-48.578358 -14.456160 11.399679 0.876233 0.411436 -0.250870
-48.807873 -13.967363 11.399677 0.876233 0.411436 -0.250870
-48.317375 -13.737047 13.490601 0.876233 0.411436 -0.250870
-48.087860 -14.225843 13.490602 0.876233 0.411436 -0.250870
-48.578358 -14.456160 11.399679 0.876232 0.411439 -0.250870
-48.087860 -14.225843 13.490602 0.876232 0.411439 -0.250870
-47.169792 -16.181030 13.490603 0.876232 0.411439 -0.250870
-47.660290 -16.411346 11.399681 0.876232 0.411439 -0.250870
4 0 1 2 3
4 4 5 6 7
4 4 7 8 9
4 10 11 12 13
4 14 15 16 17
4 18 19 20 21
4 18 21 22 23
4 24 25 26 27
4 28 29 30 31
4 32 33 22 21
4 32 21 20 34
4 35 36 37 38
4 39 40 41 42
4 43 44 45 46
4 47 48 49 50
4 47 50 51 52
4 53 54 55 56
4 53 56 57 58
4 53 58 59 17
4 53 17 16 54
4 60 61 62 63
4 60 63 64 65
4 66 67 68 69
4 70 71 72 73
4 74 75 76 77
4 78 79 80 81
4 82 83 84 85
4 86 87 88 89
4 90 91 92 93
4 94 95 96 97
4 98 99 57 56
4 100 101 84 83
4 102 103 104 105
4 106 107 108 109
4 110 111 112 113
4 114 115 116 117
