ply
format ascii 1.0
comment Created by Blender 2.79 (sub 0) - www.blender.org, source file: 'bmps.blend'
element vertex 49
property float x
property float y
property float z
element face 36
property list uchar uint vertex_indices
end_header
-38.718403 -26.530254 26.036156
-38.488888 -27.019053 26.036156
-38.979385 -27.249367 23.945232
-39.208900 -26.760572 23.945232
-40.126968 -24.805384 23.945229
-39.636467 -24.575069 26.036154
-39.513847 -24.517488 26.558884
-38.595779 -26.472675 26.558884
-38.454296 -26.853668 26.428204
-41.931633 -19.687099 26.036152
-42.422134 -19.917416 23.945229
-44.717297 -15.029449 23.945225
-44.226799 -14.799133 26.036148
-44.104176 -14.741553 26.558880
-41.809010 -19.629520 26.558884
-45.144867 -12.843946 26.036148
-45.374382 -12.355151 26.036146
-45.225033 -12.434166 26.428196
-45.022240 -12.786367 26.558880
-45.635365 -13.074263 23.945223
-45.864880 -12.585467 23.945221
-40.435150 -27.336361 18.717920
-40.205631 -27.825159 18.717922
-41.431877 -28.400949 13.490610
-41.661396 -27.912153 13.490608
-42.579460 -25.956966 13.490606
-41.353214 -25.381176 18.717918
-43.648380 -20.493208 18.717916
-44.874626 -21.068998 13.490605
-47.169792 -16.181030 13.490603
-45.943546 -15.605240 18.717915
-46.861610 -13.650053 18.717913
-48.087856 -14.225843 13.490602
-48.317375 -13.737047 13.490601
-47.091125 -13.161257 18.717911
-42.151894 -28.142469 11.399683
-41.922379 -28.631266 11.399685
-42.071724 -28.552252 11.007635
-42.274517 -28.200050 10.876951
-43.192585 -26.244864 10.876951
-43.069958 -26.187283 11.399682
-45.365124 -21.299314 11.399681
-45.487747 -21.356895 10.876950
-47.782913 -16.468925 10.876950
-47.660290 -16.411346 11.399680
-48.578354 -14.456160 11.399679
-48.700981 -14.513739 10.876949
-48.842461 -14.132746 11.007631
-48.807873 -13.967362 11.399678
4 0 1 2 3
4 0 3 4 5
4 0 5 6 7
4 0 7 8 1
4 9 5 4 10
4 9 10 11 12
4 9 12 13 14
4 9 14 6 5
4 15 16 17 18
4 15 18 13 12
4 15 12 11 19
4 15 19 20 16
4 21 22 23 24
4 21 24 25 26
4 21 26 4 3
4 21 3 2 22
4 27 26 25 28
4 27 28 29 30
4 27 30 11 10
4 27 10 4 26
4 31 30 29 32
4 31 32 33 34
4 31 34 20 19
4 31 19 11 30
4 35 36 37 38
4 35 38 39 40
4 35 40 25 24
4 35 24 23 36
4 41 40 39 42
4 41 42 43 44
4 41 44 29 28
4 41 28 25 40
4 45 44 43 46
4 45 46 47 48
4 45 48 33 32
4 45 32 29 44
