ply
format ascii 1.0
comment Created by Blender 2.79 (sub 0) - www.blender.org, source file: 'bmps.blend'
element vertex 625
property float x
property float y
property float z
element face 576
property list uchar uint vertex_indices
end_header
42.090240 49.549953 -0.100000
42.090240 45.549957 -0.100000
46.090233 45.549953 -0.100000
46.090233 49.549953 -0.100000
42.090240 41.549957 -0.100000
46.090233 41.549953 -0.100000
42.090240 37.549957 -0.100000
46.090233 37.549953 -0.100000
42.090240 33.549957 -0.100000
46.090233 33.549957 -0.100000
42.090240 29.549961 -0.100000
46.090233 29.549955 -0.100000
42.090240 25.549959 -0.100000
46.090233 25.549959 -0.100000
42.090240 21.549961 -0.100000
46.090233 21.549959 -0.100000
42.090240 17.549965 -0.100000
46.090233 17.549961 -0.100000
42.090240 13.549961 -0.100000
46.090233 13.549957 -0.100000
42.090240 9.549965 -0.100000
46.090233 9.549961 -0.100000
42.090240 5.549965 -0.100000
46.090233 5.549961 -0.100000
42.090240 1.549969 -0.100000
46.090233 1.549965 -0.100000
42.090240 -2.450031 -0.100000
46.090233 -2.450039 -0.100000
42.090240 -6.450031 -0.100000
46.090233 -6.450031 -0.100000
42.090240 -10.450035 -0.100000
46.090233 -10.450039 -0.100000
42.090240 -14.450027 -0.100000
46.090233 -14.450035 -0.100000
42.090240 -18.450027 -0.100000
46.090233 -18.450027 -0.100000
42.090240 -22.450027 -0.100000
46.090233 -22.450035 -0.100000
42.090240 -26.450027 -0.100000
46.090233 -26.450035 -0.100000
42.090240 -30.450027 -0.100000
46.090233 -30.450027 -0.100000
42.090240 -34.450020 -0.100000
46.090233 -34.450020 -0.100000
42.090240 -38.450027 -0.100000
46.090233 -38.450027 -0.100000
42.090240 -42.450027 -0.100000
46.090233 -42.450027 -0.100000
42.090240 -46.450020 -0.100000
46.090233 -46.450020 -0.100000
38.090248 49.549953 -0.100000
38.090248 45.549957 -0.100000
38.090248 41.549957 -0.100000
38.090248 37.549957 -0.100000
38.090248 33.549957 -0.100000
38.090248 29.549961 -0.100000
38.090248 25.549959 -0.100000
38.090248 21.549961 -0.100000
38.090248 17.549965 -0.100000
38.090248 13.549961 -0.100000
38.090248 9.549965 -0.100000
38.090248 5.549965 -0.100000
38.090248 1.549969 -0.100000
38.090240 -2.450031 -0.100000
38.090240 -6.450031 -0.100000
38.090240 -10.450035 -0.100000
38.090240 -14.450027 -0.100000
38.090240 -18.450027 -0.100000
38.090240 -22.450027 -0.100000
38.090240 -26.450027 -0.100000
38.090240 -30.450027 -0.100000
38.090240 -34.450020 -0.100000
38.090240 -38.450027 -0.100000
38.090240 -42.450027 -0.100000
38.090240 -46.450020 -0.100000
34.090240 49.549953 -0.100000
34.090240 45.549957 -0.100000
34.090240 41.549957 -0.100000
34.090240 37.549957 -0.100000
34.090240 33.549957 -0.100000
34.090240 29.549961 -0.100000
34.090240 25.549959 -0.100000
34.090240 21.549961 -0.100000
34.090240 17.549965 -0.100000
34.090240 13.549961 -0.100000
34.090240 9.549965 -0.100000
34.090240 5.549965 -0.100000
34.090240 1.549969 -0.100000
34.090233 -2.450031 -0.100000
34.090233 -6.450031 -0.100000
34.090233 -10.450035 -0.100000
34.090233 -14.450027 -0.100000
34.090233 -18.450027 -0.100000
34.090233 -22.450027 -0.100000
34.090233 -26.450027 -0.100000
34.090233 -30.450027 -0.100000
34.090233 -34.450020 -0.100000
34.090233 -38.450027 -0.100000
34.090233 -42.450027 -0.100000
34.090233 -46.450020 -0.100000
30.090240 49.549953 -0.100000
30.090240 45.549957 -0.100000
30.090240 41.549957 -0.100000
30.090240 37.549957 -0.100000
30.090240 33.549957 -0.100000
30.090240 29.549961 -0.100000
30.090240 25.549959 -0.100000
30.090240 21.549961 -0.100000
30.090240 17.549965 -0.100000
30.090240 13.549961 -0.100000
30.090240 9.549965 -0.100000
30.090240 5.549965 -0.100000
30.090240 1.549969 -0.100000
30.090240 -2.450031 -0.100000
30.090240 -6.450031 -0.100000
30.090240 -10.450035 -0.100000
30.090240 -14.450027 -0.100000
30.090240 -18.450027 -0.100000
30.090240 -22.450027 -0.100000
30.090240 -26.450027 -0.100000
30.090240 -30.450027 -0.100000
30.090240 -34.450020 -0.100000
30.090240 -38.450027 -0.100000
30.090240 -42.450027 -0.100000
30.090240 -46.450020 -0.100000
26.090240 49.549953 -0.100000
26.090240 45.549957 -0.100000
26.090240 41.549957 -0.100000
26.090240 37.549957 -0.100000
26.090240 33.549957 -0.100000
26.090240 29.549961 -0.100000
26.090240 25.549959 -0.100000
26.090240 21.549961 -0.100000
26.090240 17.549965 -0.100000
26.090240 13.549961 -0.100000
26.090240 9.549965 -0.100000
26.090240 5.549965 -0.100000
26.090240 1.549969 -0.100000
26.090240 -2.450031 -0.100000
26.090240 -6.450031 -0.100000
26.090240 -10.450035 -0.100000
26.090240 -14.450027 -0.100000
26.090240 -18.450027 -0.100000
26.090240 -22.450027 -0.100000
26.090240 -26.450027 -0.100000
26.090240 -30.450027 -0.100000
26.090240 -34.450020 -0.100000
26.090240 -38.450027 -0.100000
26.090240 -42.450027 -0.100000
26.090240 -46.450020 -0.100000
22.090248 49.549953 -0.100000
22.090248 45.549957 -0.100000
22.090248 41.549957 -0.100000
22.090248 37.549957 -0.100000
22.090240 33.549957 -0.100000
22.090240 29.549961 -0.100000
22.090240 25.549959 -0.100000
22.090240 21.549961 -0.100000
22.090240 17.549965 -0.100000
22.090240 13.549961 -0.100000
22.090240 9.549965 -0.100000
22.090240 5.549965 -0.100000
22.090240 1.549969 -0.100000
22.090240 -2.450031 -0.100000
22.090240 -6.450031 -0.100000
22.090240 -10.450035 -0.100000
22.090240 -14.450027 -0.100000
22.090240 -18.450027 -0.100000
22.090240 -22.450027 -0.100000
22.090240 -26.450027 -0.100000
22.090240 -30.450027 -0.100000
22.090240 -34.450020 -0.100000
22.090233 -38.450027 -0.100000
22.090233 -42.450027 -0.100000
22.090233 -46.450020 -0.100000
18.090248 49.549961 -0.100000
18.090248 45.549965 -0.100000
18.090248 41.549965 -0.100000
18.090248 37.549965 -0.100000
18.090248 33.549965 -0.100000
18.090248 29.549967 -0.100000
18.090248 25.549965 -0.100000
18.090248 21.549967 -0.100000
18.090248 17.549969 -0.100000
18.090248 13.549969 -0.100000
18.090240 9.549969 -0.100000
18.090240 5.549973 -0.100000
18.090240 1.549973 -0.100000
18.090240 -2.450024 -0.100000
18.090240 -6.450027 -0.100000
18.090240 -10.450027 -0.100000
18.090240 -14.450020 -0.100000
18.090240 -18.450027 -0.100000
18.090240 -22.450027 -0.100000
18.090240 -26.450020 -0.100000
18.090240 -30.450020 -0.100000
18.090240 -34.450020 -0.100000
18.090240 -38.450020 -0.100000
18.090240 -42.450020 -0.100000
18.090240 -46.450012 -0.100000
14.090240 49.549961 -0.100000
14.090240 45.549965 -0.100000
14.090240 41.549965 -0.100000
14.090240 37.549965 -0.100000
14.090240 33.549965 -0.100000
14.090240 29.549967 -0.100000
14.090240 25.549965 -0.100000
14.090240 21.549967 -0.100000
14.090240 17.549969 -0.100000
14.090240 13.549969 -0.100000
14.090240 9.549969 -0.100000
14.090240 5.549973 -0.100000
14.090240 1.549973 -0.100000
14.090240 -2.450024 -0.100000
14.090240 -6.450027 -0.100000
14.090240 -10.450027 -0.100000
14.090240 -14.450020 -0.100000
14.090240 -18.450027 -0.100000
14.090240 -22.450027 -0.100000
14.090240 -26.450020 -0.100000
14.090240 -30.450020 -0.100000
14.090240 -34.450020 -0.100000
14.090240 -38.450020 -0.100000
14.090240 -42.450020 -0.100000
14.090240 -46.450012 -0.100000
10.090248 49.549961 -0.100000
10.090248 45.549965 -0.100000
10.090240 41.549965 -0.100000
10.090240 37.549965 -0.100000
10.090240 33.549965 -0.100000
10.090240 29.549967 -0.100000
10.090240 25.549965 -0.100000
10.090240 21.549967 -0.100000
10.090240 17.549969 -0.100000
10.090240 13.549969 -0.100000
10.090240 9.549969 -0.100000
10.090240 5.549973 -0.100000
10.090240 1.549973 -0.100000
10.090240 -2.450024 -0.100000
10.090240 -6.450027 -0.100000
10.090240 -10.450027 -0.100000
10.090240 -14.450020 -0.100000
10.090240 -18.450027 -0.100000
10.090240 -22.450027 -0.100000
10.090240 -26.450020 -0.100000
10.090240 -30.450020 -0.100000
10.090240 -34.450020 -0.100000
10.090240 -38.450020 -0.100000
10.090240 -42.450020 -0.100000
10.090237 -46.450012 -0.100000
6.090252 49.549961 -0.100000
6.090244 45.549965 -0.100000
6.090244 41.549965 -0.100000
6.090244 37.549965 -0.100000
6.090244 33.549965 -0.100000
6.090244 29.549967 -0.100000
6.090244 25.549965 -0.100000
6.090244 21.549967 -0.100000
6.090244 17.549969 -0.100000
6.090244 13.549969 -0.100000
6.090244 9.549969 -0.100000
6.090244 5.549973 -0.100000
6.090244 1.549973 -0.100000
6.090244 -2.450024 -0.100000
6.090244 -6.450027 -0.100000
6.090244 -10.450027 -0.100000
6.090244 -14.450020 -0.100000
6.090240 -18.450027 -0.100000
6.090240 -22.450027 -0.100000
6.090240 -26.450020 -0.100000
6.090240 -30.450020 -0.100000
6.090240 -34.450020 -0.100000
6.090240 -38.450020 -0.100000
6.090240 -42.450020 -0.100000
6.090240 -46.450012 -0.100000
2.090248 49.549961 -0.100000
2.090248 45.549965 -0.100000
2.090248 41.549965 -0.100000
2.090248 37.549965 -0.100000
2.090248 33.549965 -0.100000
2.090248 29.549967 -0.100000
2.090248 25.549965 -0.100000
2.090248 21.549967 -0.100000
2.090248 17.549969 -0.100000
2.090244 13.549969 -0.100000
2.090244 9.549969 -0.100000
2.090244 5.549973 -0.100000
2.090244 1.549973 -0.100000
2.090244 -2.450024 -0.100000
2.090244 -6.450027 -0.100000
2.090244 -10.450027 -0.100000
2.090244 -14.450020 -0.100000
2.090244 -18.450027 -0.100000
2.090244 -22.450027 -0.100000
2.090244 -26.450020 -0.100000
2.090244 -30.450020 -0.100000
2.090244 -34.450020 -0.100000
2.090244 -38.450020 -0.100000
2.090244 -42.450020 -0.100000
2.090244 -46.450012 -0.100000
-1.909748 49.549961 -0.100000
-1.909748 45.549965 -0.100000
-1.909748 41.549965 -0.100000
-1.909748 37.549965 -0.100000
-1.909752 33.549965 -0.100000
-1.909752 29.549967 -0.100000
-1.909752 25.549965 -0.100000
-1.909752 21.549967 -0.100000
-1.909752 17.549969 -0.100000
-1.909752 13.549969 -0.100000
-1.909752 9.549969 -0.100000
-1.909752 5.549973 -0.100000
-1.909752 1.549973 -0.100000
-1.909752 -2.450024 -0.100000
-1.909752 -6.450027 -0.100000
-1.909752 -10.450027 -0.100000
-1.909756 -14.450020 -0.100000
-1.909756 -18.450027 -0.100000
-1.909756 -22.450027 -0.100000
-1.909756 -26.450020 -0.100000
-1.909756 -30.450020 -0.100000
-1.909756 -34.450020 -0.100000
-1.909760 -38.450020 -0.100000
-1.909760 -42.450020 -0.100000
-1.909760 -46.450012 -0.100000
-5.909748 49.549961 -0.100000
-5.909748 45.549965 -0.100000
-5.909748 41.549965 -0.100000
-5.909748 37.549965 -0.100000
-5.909752 33.549965 -0.100000
-5.909752 29.549967 -0.100000
-5.909752 25.549965 -0.100000
-5.909752 21.549967 -0.100000
-5.909752 17.549969 -0.100000
-5.909756 13.549969 -0.100000
-5.909756 9.549969 -0.100000
-5.909756 5.549973 -0.100000
-5.909756 1.549973 -0.100000
-5.909756 -2.450024 -0.100000
-5.909756 -6.450027 -0.100000
-5.909756 -10.450027 -0.100000
-5.909756 -14.450020 -0.100000
-5.909760 -18.450027 -0.100000
-5.909760 -22.450027 -0.100000
-5.909760 -26.450020 -0.100000
-5.909760 -30.450020 -0.100000
-5.909760 -34.450020 -0.100000
-5.909760 -38.450020 -0.100000
-5.909760 -42.450020 -0.100000
-5.909760 -46.450012 -0.100000
-9.909752 49.549969 -0.100000
-9.909752 45.549969 -0.100000
-9.909752 41.549973 -0.100000
-9.909752 37.549969 -0.100000
-9.909756 33.549973 -0.100000
-9.909756 29.549973 -0.100000
-9.909756 25.549973 -0.100000
-9.909756 21.549973 -0.100000
-9.909756 17.549976 -0.100000
-9.909760 13.549973 -0.100000
-9.909760 9.549976 -0.100000
-9.909760 5.549976 -0.100000
-9.909760 1.549980 -0.100000
-9.909760 -2.450020 -0.100000
-9.909760 -6.450020 -0.100000
-9.909760 -10.450020 -0.100000
-9.909760 -14.450020 -0.100000
-9.909760 -18.450020 -0.100000
-9.909760 -22.450020 -0.100000
-9.909760 -26.450012 -0.100000
-9.909760 -30.450012 -0.100000
-9.909760 -34.450012 -0.100000
-9.909763 -38.450012 -0.100000
-9.909763 -42.450012 -0.100000
-9.909763 -46.450012 -0.100000
-13.909748 49.549969 -0.100000
-13.909748 45.549969 -0.100000
-13.909748 41.549973 -0.100000
-13.909748 37.549969 -0.100000
-13.909748 33.549973 -0.100000
-13.909752 29.549973 -0.100000
-13.909752 25.549973 -0.100000
-13.909752 21.549973 -0.100000
-13.909752 17.549976 -0.100000
-13.909752 13.549973 -0.100000
-13.909752 9.549976 -0.100000
-13.909752 5.549976 -0.100000
-13.909752 1.549980 -0.100000
-13.909752 -2.450020 -0.100000
-13.909752 -6.450020 -0.100000
-13.909752 -10.450020 -0.100000
-13.909752 -14.450020 -0.100000
-13.909752 -18.450020 -0.100000
-13.909756 -22.450020 -0.100000
-13.909756 -26.450012 -0.100000
-13.909756 -30.450012 -0.100000
-13.909760 -34.450012 -0.100000
-13.909760 -38.450012 -0.100000
-13.909760 -42.450012 -0.100000
-13.909760 -46.450012 -0.100000
-17.909752 49.549969 -0.100000
-17.909752 45.549969 -0.100000
-17.909752 41.549973 -0.100000
-17.909752 37.549969 -0.100000
-17.909752 33.549973 -0.100000
-17.909752 29.549973 -0.100000
-17.909752 25.549973 -0.100000
-17.909752 21.549973 -0.100000
-17.909756 17.549976 -0.100000
-17.909756 13.549973 -0.100000
-17.909756 9.549976 -0.100000
-17.909756 5.549976 -0.100000
-17.909756 1.549980 -0.100000
-17.909756 -2.450020 -0.100000
-17.909756 -6.450020 -0.100000
-17.909756 -10.450020 -0.100000
-17.909756 -14.450020 -0.100000
-17.909756 -18.450020 -0.100000
-17.909760 -22.450020 -0.100000
-17.909760 -26.450012 -0.100000
-17.909760 -30.450012 -0.100000
-17.909763 -34.450012 -0.100000
-17.909763 -38.450012 -0.100000
-17.909763 -42.450012 -0.100000
-17.909763 -46.450012 -0.100000
-21.909752 49.549969 -0.100000
-21.909752 45.549969 -0.100000
-21.909752 41.549973 -0.100000
-21.909752 37.549969 -0.100000
-21.909752 33.549973 -0.100000
-21.909756 29.549973 -0.100000
-21.909756 25.549973 -0.100000
-21.909756 21.549973 -0.100000
-21.909758 17.549976 -0.100000
-21.909758 13.549973 -0.100000
-21.909758 9.549976 -0.100000
-21.909758 5.549976 -0.100000
-21.909758 1.549980 -0.100000
-21.909758 -2.450020 -0.100000
-21.909758 -6.450020 -0.100000
-21.909758 -10.450020 -0.100000
-21.909758 -14.450020 -0.100000
-21.909758 -18.450020 -0.100000
-21.909761 -22.450020 -0.100000
-21.909761 -26.450012 -0.100000
-21.909761 -30.450012 -0.100000
-21.909763 -34.450012 -0.100000
-21.909763 -38.450012 -0.100000
-21.909763 -42.450012 -0.100000
-21.909763 -46.450012 -0.100000
-25.909748 49.549969 -0.100000
-25.909748 45.549969 -0.100000
-25.909748 41.549973 -0.100000
-25.909748 37.549969 -0.100000
-25.909752 33.549973 -0.100000
-25.909752 29.549973 -0.100000
-25.909752 25.549973 -0.100000
-25.909752 21.549973 -0.100000
-25.909752 17.549976 -0.100000
-25.909752 13.549973 -0.100000
-25.909754 9.549976 -0.100000
-25.909754 5.549976 -0.100000
-25.909754 1.549980 -0.100000
-25.909754 -2.450020 -0.100000
-25.909754 -6.450020 -0.100000
-25.909754 -10.450020 -0.100000
-25.909758 -14.450020 -0.100000
-25.909758 -18.450020 -0.100000
-25.909758 -22.450020 -0.100000
-25.909758 -26.450012 -0.100000
-25.909758 -30.450012 -0.100000
-25.909758 -34.450012 -0.100000
-25.909760 -38.450012 -0.100000
-25.909760 -42.450012 -0.100000
-25.909760 -46.450012 -0.100000
-29.909750 49.549969 -0.100000
-29.909750 45.549969 -0.100000
-29.909750 41.549973 -0.100000
-29.909750 37.549969 -0.100000
-29.909754 33.549973 -0.100000
-29.909754 29.549973 -0.100000
-29.909754 25.549973 -0.100000
-29.909754 21.549973 -0.100000
-29.909754 17.549976 -0.100000
-29.909754 13.549973 -0.100000
-29.909756 9.549976 -0.100000
-29.909756 5.549976 -0.100000
-29.909756 1.549980 -0.100000
-29.909756 -2.450020 -0.100000
-29.909756 -6.450020 -0.100000
-29.909756 -10.450020 -0.100000
-29.909760 -14.450020 -0.100000
-29.909760 -18.450020 -0.100000
-29.909760 -22.450020 -0.100000
-29.909760 -26.450012 -0.100000
-29.909760 -30.450012 -0.100000
-29.909760 -34.450012 -0.100000
-29.909763 -38.450012 -0.100000
-29.909763 -42.450012 -0.100000
-29.909763 -46.450012 -0.100000
-33.909740 49.549969 -0.100000
-33.909740 45.549969 -0.100000
-33.909740 41.549973 -0.100000
-33.909744 37.549969 -0.100000
-33.909744 33.549973 -0.100000
-33.909744 29.549973 -0.100000
-33.909744 25.549973 -0.100000
-33.909744 21.549973 -0.100000
-33.909744 17.549976 -0.100000
-33.909744 13.549973 -0.100000
-33.909744 9.549976 -0.100000
-33.909752 5.549976 -0.100000
-33.909752 1.549980 -0.100000
-33.909752 -2.450020 -0.100000
-33.909752 -6.450020 -0.100000
-33.909752 -10.450020 -0.100000
-33.909752 -14.450020 -0.100000
-33.909752 -18.450020 -0.100000
-33.909752 -22.450020 -0.100000
-33.909756 -26.450012 -0.100000
-33.909756 -30.450012 -0.100000
-33.909756 -34.450012 -0.100000
-33.909756 -38.450012 -0.100000
-33.909760 -42.450012 -0.100000
-33.909760 -46.450012 -0.100000
-37.909744 49.549973 -0.100000
-37.909744 45.549976 -0.100000
-37.909744 41.549973 -0.100000
-37.909744 37.549976 -0.100000
-37.909744 33.549973 -0.100000
-37.909744 29.549973 -0.100000
-37.909744 25.549978 -0.100000
-37.909748 21.549976 -0.100000
-37.909748 17.549976 -0.100000
-37.909748 13.549976 -0.100000
-37.909748 9.549976 -0.100000
-37.909752 5.549976 -0.100000
-37.909752 1.549980 -0.100000
-37.909752 -2.450020 -0.100000
-37.909752 -6.450020 -0.100000
-37.909756 -10.450020 -0.100000
-37.909756 -14.450020 -0.100000
-37.909756 -18.450020 -0.100000
-37.909756 -22.450020 -0.100000
-37.909760 -26.450020 -0.100000
-37.909760 -30.450020 -0.100000
-37.909760 -34.450020 -0.100000
-37.909760 -38.450020 -0.100000
-37.909760 -42.450020 -0.100000
-37.909760 -46.450012 -0.100000
-41.909744 49.549973 -0.100000
-41.909744 45.549976 -0.100000
-41.909744 41.549973 -0.100000
-41.909748 37.549976 -0.100000
-41.909748 33.549973 -0.100000
-41.909748 29.549973 -0.100000
-41.909748 25.549978 -0.100000
-41.909752 21.549976 -0.100000
-41.909752 17.549976 -0.100000
-41.909752 13.549976 -0.100000
-41.909752 9.549976 -0.100000
-41.909752 5.549976 -0.100000
-41.909752 1.549980 -0.100000
-41.909752 -2.450020 -0.100000
-41.909752 -6.450020 -0.100000
-41.909756 -10.450020 -0.100000
-41.909756 -14.450020 -0.100000
-41.909756 -18.450020 -0.100000
-41.909756 -22.450020 -0.100000
-41.909760 -26.450020 -0.100000
-41.909760 -30.450020 -0.100000
-41.909760 -34.450020 -0.100000
-41.909760 -38.450020 -0.100000
-41.909763 -42.450020 -0.100000
-41.909763 -46.450012 -0.100000
-45.909740 49.549973 -0.100000
-45.909740 45.549976 -0.100000
-45.909740 41.549973 -0.100000
-45.909744 37.549976 -0.100000
-45.909744 33.549973 -0.100000
-45.909744 29.549973 -0.100000
-45.909744 25.549978 -0.100000
-45.909748 21.549976 -0.100000
-45.909748 17.549976 -0.100000
-45.909748 13.549976 -0.100000
-45.909748 9.549976 -0.100000
-45.909752 5.549976 -0.100000
-45.909752 1.549980 -0.100000
-45.909752 -2.450020 -0.100000
-45.909752 -6.450020 -0.100000
-45.909752 -10.450020 -0.100000
-45.909752 -14.450020 -0.100000
-45.909752 -18.450020 -0.100000
-45.909752 -22.450020 -0.100000
-45.909756 -26.450020 -0.100000
-45.909756 -30.450020 -0.100000
-45.909756 -34.450020 -0.100000
-45.909756 -38.450020 -0.100000
-45.909760 -42.450020 -0.100000
-45.909760 -46.450012 -0.100000
-49.909744 49.549973 -0.100000
-49.909744 45.549976 -0.100000
-49.909748 41.549980 -0.100000
-49.909748 37.549980 -0.100000
-49.909748 33.549976 -0.100000
-49.909748 29.549982 -0.100000
-49.909748 25.549980 -0.100000
-49.909748 21.549980 -0.100000
-49.909752 17.549976 -0.100000
-49.909752 13.549976 -0.100000
-49.909752 9.549980 -0.100000
-49.909756 5.549980 -0.100000
-49.909756 1.549980 -0.100000
-49.909756 -2.450020 -0.100000
-49.909756 -6.450020 -0.100000
-49.909760 -10.450016 -0.100000
-49.909760 -14.450020 -0.100000
-49.909760 -18.450020 -0.100000
-49.909760 -22.450012 -0.100000
-49.909760 -26.450012 -0.100000
-49.909760 -30.450012 -0.100000
-49.909760 -34.450020 -0.100000
-49.909767 -38.450020 -0.100000
-49.909767 -42.450012 -0.100000
-49.909767 -46.450012 -0.100000
4 0 1 2 3
4 1 4 5 2
4 4 6 7 5
4 6 8 9 7
4 8 10 11 9
4 10 12 13 11
4 12 14 15 13
4 14 16 17 15
4 16 18 19 17
4 18 20 21 19
4 20 22 23 21
4 22 24 25 23
4 24 26 27 25
4 26 28 29 27
4 28 30 31 29
4 30 32 33 31
4 32 34 35 33
4 34 36 37 35
4 36 38 39 37
4 38 40 41 39
4 40 42 43 41
4 42 44 45 43
4 44 46 47 45
4 46 48 49 47
4 50 51 1 0
4 51 52 4 1
4 52 53 6 4
4 53 54 8 6
4 54 55 10 8
4 55 56 12 10
4 56 57 14 12
4 57 58 16 14
4 58 59 18 16
4 59 60 20 18
4 60 61 22 20
4 61 62 24 22
4 62 63 26 24
4 63 64 28 26
4 64 65 30 28
4 65 66 32 30
4 66 67 34 32
4 67 68 36 34
4 68 69 38 36
4 69 70 40 38
4 70 71 42 40
4 71 72 44 42
4 72 73 46 44
4 73 74 48 46
4 75 76 51 50
4 76 77 52 51
4 77 78 53 52
4 78 79 54 53
4 79 80 55 54
4 80 81 56 55
4 81 82 57 56
4 82 83 58 57
4 83 84 59 58
4 84 85 60 59
4 85 86 61 60
4 86 87 62 61
4 87 88 63 62
4 88 89 64 63
4 89 90 65 64
4 90 91 66 65
4 91 92 67 66
4 92 93 68 67
4 93 94 69 68
4 94 95 70 69
4 95 96 71 70
4 96 97 72 71
4 97 98 73 72
4 98 99 74 73
4 100 101 76 75
4 101 102 77 76
4 102 103 78 77
4 103 104 79 78
4 104 105 80 79
4 105 106 81 80
4 106 107 82 81
4 107 108 83 82
4 108 109 84 83
4 109 110 85 84
4 110 111 86 85
4 111 112 87 86
4 112 113 88 87
4 113 114 89 88
4 114 115 90 89
4 115 116 91 90
4 116 117 92 91
4 117 118 93 92
4 118 119 94 93
4 119 120 95 94
4 120 121 96 95
4 121 122 97 96
4 122 123 98 97
4 123 124 99 98
4 125 126 101 100
4 126 127 102 101
4 127 128 103 102
4 128 129 104 103
4 129 130 105 104
4 130 131 106 105
4 131 132 107 106
4 132 133 108 107
4 133 134 109 108
4 134 135 110 109
4 135 136 111 110
4 136 137 112 111
4 137 138 113 112
4 138 139 114 113
4 139 140 115 114
4 140 141 116 115
4 141 142 117 116
4 142 143 118 117
4 143 144 119 118
4 144 145 120 119
4 145 146 121 120
4 146 147 122 121
4 147 148 123 122
4 148 149 124 123
4 150 151 126 125
4 151 152 127 126
4 152 153 128 127
4 153 154 129 128
4 154 155 130 129
4 155 156 131 130
4 156 157 132 131
4 157 158 133 132
4 158 159 134 133
4 159 160 135 134
4 160 161 136 135
4 161 162 137 136
4 162 163 138 137
4 163 164 139 138
4 164 165 140 139
4 165 166 141 140
4 166 167 142 141
4 167 168 143 142
4 168 169 144 143
4 169 170 145 144
4 170 171 146 145
4 171 172 147 146
4 172 173 148 147
4 173 174 149 148
4 175 176 151 150
4 176 177 152 151
4 177 178 153 152
4 178 179 154 153
4 179 180 155 154
4 180 181 156 155
4 181 182 157 156
4 182 183 158 157
4 183 184 159 158
4 184 185 160 159
4 185 186 161 160
4 186 187 162 161
4 187 188 163 162
4 188 189 164 163
4 189 190 165 164
4 190 191 166 165
4 191 192 167 166
4 192 193 168 167
4 193 194 169 168
4 194 195 170 169
4 195 196 171 170
4 196 197 172 171
4 197 198 173 172
4 198 199 174 173
4 200 201 176 175
4 201 202 177 176
4 202 203 178 177
4 203 204 179 178
4 204 205 180 179
4 205 206 181 180
4 206 207 182 181
4 207 208 183 182
4 208 209 184 183
4 209 210 185 184
4 210 211 186 185
4 211 212 187 186
4 212 213 188 187
4 213 214 189 188
4 214 215 190 189
4 215 216 191 190
4 216 217 192 191
4 217 218 193 192
4 218 219 194 193
4 219 220 195 194
4 220 221 196 195
4 221 222 197 196
4 222 223 198 197
4 223 224 199 198
4 225 226 201 200
4 226 227 202 201
4 227 228 203 202
4 228 229 204 203
4 229 230 205 204
4 230 231 206 205
4 231 232 207 206
4 232 233 208 207
4 233 234 209 208
4 234 235 210 209
4 235 236 211 210
4 236 237 212 211
4 237 238 213 212
4 238 239 214 213
4 239 240 215 214
4 240 241 216 215
4 241 242 217 216
4 242 243 218 217
4 243 244 219 218
4 244 245 220 219
4 245 246 221 220
4 246 247 222 221
4 247 248 223 222
4 248 249 224 223
4 250 251 226 225
4 251 252 227 226
4 252 253 228 227
4 253 254 229 228
4 254 255 230 229
4 255 256 231 230
4 256 257 232 231
4 257 258 233 232
4 258 259 234 233
4 259 260 235 234
4 260 261 236 235
4 261 262 237 236
4 262 263 238 237
4 263 264 239 238
4 264 265 240 239
4 265 266 241 240
4 266 267 242 241
4 267 268 243 242
4 268 269 244 243
4 269 270 245 244
4 270 271 246 245
4 271 272 247 246
4 272 273 248 247
4 273 274 249 248
4 275 276 251 250
4 276 277 252 251
4 277 278 253 252
4 278 279 254 253
4 279 280 255 254
4 280 281 256 255
4 281 282 257 256
4 282 283 258 257
4 283 284 259 258
4 284 285 260 259
4 285 286 261 260
4 286 287 262 261
4 287 288 263 262
4 288 289 264 263
4 289 290 265 264
4 290 291 266 265
4 291 292 267 266
4 292 293 268 267
4 293 294 269 268
4 294 295 270 269
4 295 296 271 270
4 296 297 272 271
4 297 298 273 272
4 298 299 274 273
4 300 301 276 275
4 301 302 277 276
4 302 303 278 277
4 303 304 279 278
4 304 305 280 279
4 305 306 281 280
4 306 307 282 281
4 307 308 283 282
4 308 309 284 283
4 309 310 285 284
4 310 311 286 285
4 311 312 287 286
4 312 313 288 287
4 313 314 289 288
4 314 315 290 289
4 315 316 291 290
4 316 317 292 291
4 317 318 293 292
4 318 319 294 293
4 319 320 295 294
4 320 321 296 295
4 321 322 297 296
4 322 323 298 297
4 323 324 299 298
4 325 326 301 300
4 326 327 302 301
4 327 328 303 302
4 328 329 304 303
4 329 330 305 304
4 330 331 306 305
4 331 332 307 306
4 332 333 308 307
4 333 334 309 308
4 334 335 310 309
4 335 336 311 310
4 336 337 312 311
4 337 338 313 312
4 338 339 314 313
4 339 340 315 314
4 340 341 316 315
4 341 342 317 316
4 342 343 318 317
4 343 344 319 318
4 344 345 320 319
4 345 346 321 320
4 346 347 322 321
4 347 348 323 322
4 348 349 324 323
4 350 351 326 325
4 351 352 327 326
4 352 353 328 327
4 353 354 329 328
4 354 355 330 329
4 355 356 331 330
4 356 357 332 331
4 357 358 333 332
4 358 359 334 333
4 359 360 335 334
4 360 361 336 335
4 361 362 337 336
4 362 363 338 337
4 363 364 339 338
4 364 365 340 339
4 365 366 341 340
4 366 367 342 341
4 367 368 343 342
4 368 369 344 343
4 369 370 345 344
4 370 371 346 345
4 371 372 347 346
4 372 373 348 347
4 373 374 349 348
4 375 376 351 350
4 376 377 352 351
4 377 378 353 352
4 378 379 354 353
4 379 380 355 354
4 380 381 356 355
4 381 382 357 356
4 382 383 358 357
4 383 384 359 358
4 384 385 360 359
4 385 386 361 360
4 386 387 362 361
4 387 388 363 362
4 388 389 364 363
4 389 390 365 364
4 390 391 366 365
4 391 392 367 366
4 392 393 368 367
4 393 394 369 368
4 394 395 370 369
4 395 396 371 370
4 396 397 372 371
4 397 398 373 372
4 398 399 374 373
4 400 401 376 375
4 401 402 377 376
4 402 403 378 377
4 403 404 379 378
4 404 405 380 379
4 405 406 381 380
4 406 407 382 381
4 407 408 383 382
4 408 409 384 383
4 409 410 385 384
4 410 411 386 385
4 411 412 387 386
4 412 413 388 387
4 413 414 389 388
4 414 415 390 389
4 415 416 391 390
4 416 417 392 391
4 417 418 393 392
4 418 419 394 393
4 419 420 395 394
4 420 421 396 395
4 421 422 397 396
4 422 423 398 397
4 423 424 399 398
4 425 426 401 400
4 426 427 402 401
4 427 428 403 402
4 428 429 404 403
4 429 430 405 404
4 430 431 406 405
4 431 432 407 406
4 432 433 408 407
4 433 434 409 408
4 434 435 410 409
4 435 436 411 410
4 436 437 412 411
4 437 438 413 412
4 438 439 414 413
4 439 440 415 414
4 440 441 416 415
4 441 442 417 416
4 442 443 418 417
4 443 444 419 418
4 444 445 420 419
4 445 446 421 420
4 446 447 422 421
4 447 448 423 422
4 448 449 424 423
4 450 451 426 425
4 451 452 427 426
4 452 453 428 427
4 453 454 429 428
4 454 455 430 429
4 455 456 431 430
4 456 457 432 431
4 457 458 433 432
4 458 459 434 433
4 459 460 435 434
4 460 461 436 435
4 461 462 437 436
4 462 463 438 437
4 463 464 439 438
4 464 465 440 439
4 465 466 441 440
4 466 467 442 441
4 467 468 443 442
4 468 469 444 443
4 469 470 445 444
4 470 471 446 445
4 471 472 447 446
4 472 473 448 447
4 473 474 449 448
4 475 476 451 450
4 476 477 452 451
4 477 478 453 452
4 478 479 454 453
4 479 480 455 454
4 480 481 456 455
4 481 482 457 456
4 482 483 458 457
4 483 484 459 458
4 484 485 460 459
4 485 486 461 460
4 486 487 462 461
4 487 488 463 462
4 488 489 464 463
4 489 490 465 464
4 490 491 466 465
4 491 492 467 466
4 492 493 468 467
4 493 494 469 468
4 494 495 470 469
4 495 496 471 470
4 496 497 472 471
4 497 498 473 472
4 498 499 474 473
4 500 501 476 475
4 501 502 477 476
4 502 503 478 477
4 503 504 479 478
4 504 505 480 479
4 505 506 481 480
4 506 507 482 481
4 507 508 483 482
4 508 509 484 483
4 509 510 485 484
4 510 511 486 485
4 511 512 487 486
4 512 513 488 487
4 513 514 489 488
4 514 515 490 489
4 515 516 491 490
4 516 517 492 491
4 517 518 493 492
4 518 519 494 493
4 519 520 495 494
4 520 521 496 495
4 521 522 497 496
4 522 523 498 497
4 523 524 499 498
4 525 526 501 500
4 526 527 502 501
4 527 528 503 502
4 528 529 504 503
4 529 530 505 504
4 530 531 506 505
4 531 532 507 506
4 532 533 508 507
4 533 534 509 508
4 534 535 510 509
4 535 536 511 510
4 536 537 512 511
4 537 538 513 512
4 538 539 514 513
4 539 540 515 514
4 540 541 516 515
4 541 542 517 516
4 542 543 518 517
4 543 544 519 518
4 544 545 520 519
4 545 546 521 520
4 546 547 522 521
4 547 548 523 522
4 548 549 524 523
4 550 551 526 525
4 551 552 527 526
4 552 553 528 527
4 553 554 529 528
4 554 555 530 529
4 555 556 531 530
4 556 557 532 531
4 557 558 533 532
4 558 559 534 533
4 559 560 535 534
4 560 561 536 535
4 561 562 537 536
4 562 563 538 537
4 563 564 539 538
4 564 565 540 539
4 565 566 541 540
4 566 567 542 541
4 567 568 543 542
4 568 569 544 543
4 569 570 545 544
4 570 571 546 545
4 571 572 547 546
4 572 573 548 547
4 573 574 549 548
4 575 576 551 550
4 576 577 552 551
4 577 578 553 552
4 578 579 554 553
4 579 580 555 554
4 580 581 556 555
4 581 582 557 556
4 582 583 558 557
4 583 584 559 558
4 584 585 560 559
4 585 586 561 560
4 586 587 562 561
4 587 588 563 562
4 588 589 564 563
4 589 590 565 564
4 590 591 566 565
4 591 592 567 566
4 592 593 568 567
4 593 594 569 568
4 594 595 570 569
4 595 596 571 570
4 596 597 572 571
4 597 598 573 572
4 598 599 574 573
4 600 601 576 575
4 601 602 577 576
4 602 603 578 577
4 603 604 579 578
4 604 605 580 579
4 605 606 581 580
4 606 607 582 581
4 607 608 583 582
4 608 609 584 583
4 609 610 585 584
4 610 611 586 585
4 611 612 587 586
4 612 613 588 587
4 613 614 589 588
4 614 615 590 589
4 615 616 591 590
4 616 617 592 591
4 617 618 593 592
4 618 619 594 593
4 619 620 595 594
4 620 621 596 595
4 621 622 597 596
4 622 623 598 597
4 623 624 599 598
