ply
format ascii 1.0
comment Created by Blender 2.79 (sub 0) - www.blender.org, source file: 'bmps.blend'
element vertex 226
property float x
property float y
property float z
element face 224
property list uchar uint vertex_indices
end_header
1.211867 -3.831775 8.598183
1.214471 -3.807646 8.592322
1.141180 -3.784292 8.655956
1.138554 -3.808403 8.661840
1.070807 -3.769149 8.686878
1.068165 -3.793247 8.692775
1.201040 -3.791921 8.571099
1.127774 -3.768581 8.634712
1.074578 -3.762139 8.658157
1.135907 -3.832543 8.667599
1.209196 -3.855914 8.603970
1.118545 -3.853035 8.655090
1.191807 -3.876404 8.591484
1.065537 -3.817384 8.698517
1.066376 -3.837196 8.676268
1.282413 -3.879280 8.540255
1.285113 -3.855157 8.534451
1.321967 -3.899187 8.475625
1.324682 -3.875078 8.469809
1.265000 -3.899756 8.527791
1.294272 -3.909897 8.478179
1.287686 -3.831028 8.528612
1.274230 -3.815301 8.507414
1.327238 -3.850953 8.463987
1.302475 -3.834840 8.460070
-1.740978 -4.288329 5.368539
-1.738306 -4.264189 5.362753
-1.665017 -4.287560 5.299123
-1.667665 -4.311700 5.304881
-1.594647 -4.302720 5.268206
-1.597276 -4.326857 5.273947
-1.720918 -4.243700 5.375238
-1.647656 -4.267068 5.311632
-1.595487 -4.282908 5.290454
-1.670290 -4.335813 5.310765
-1.743582 -4.312458 5.374399
-1.656886 -4.351523 5.332008
-1.730151 -4.328183 5.395622
-1.599918 -4.350955 5.279843
-1.603690 -4.357965 5.308563
-1.816797 -4.289075 5.438109
-1.814223 -4.264947 5.432270
-1.856349 -4.269151 5.502734
-1.853793 -4.245026 5.496913
-1.803341 -4.304803 5.459308
-1.831586 -4.285264 5.506652
-1.811524 -4.240824 5.426467
-1.794110 -4.220348 5.438931
-1.851077 -4.220916 5.491096
-1.823382 -4.210207 5.488542
1.059544 -3.807828 8.414149
0.894230 -3.833381 8.233335
0.820923 -3.810008 8.297055
0.986245 -3.784460 8.477852
0.765265 -3.798517 8.346319
0.930590 -3.772973 8.527102
0.625079 -3.874996 7.938954
0.551772 -3.851623 8.002674
0.496114 -3.840132 8.051939
1.082329 -3.769644 8.582874
1.155606 -3.792994 8.519222
1.026684 -3.758167 8.632084
1.228836 -3.816381 8.455530
1.132830 -3.831222 8.350440
1.283115 -3.839971 8.409194
1.187151 -3.854818 8.304099
0.967534 -3.856778 8.169621
0.698383 -3.898393 7.875240
1.021869 -3.880376 8.123279
0.752718 -3.921991 7.828897
-0.259274 -4.011731 6.971702
0.217507 -3.938013 7.493177
0.290811 -3.961410 7.429463
-0.185971 -4.035127 6.907988
0.345147 -3.985008 7.383120
-0.131635 -4.058725 6.861644
-0.662752 -4.108845 6.386512
-0.736056 -4.085448 6.450227
-1.070324 -4.171862 5.940735
-1.143628 -4.148465 6.004449
-0.608417 -4.132443 6.340169
-1.015989 -4.195460 5.894392
-0.809363 -4.062075 6.513947
-0.332581 -3.988357 7.035422
-0.865021 -4.050584 6.563211
-0.388239 -3.976866 7.084686
-1.216934 -4.125092 6.068170
-1.272593 -4.113601 6.117434
0.144201 -3.914640 7.556897
0.088542 -3.903149 7.606162
-1.578095 -4.215646 5.529258
-1.412779 -4.190080 5.710068
-1.339475 -4.213477 5.646354
-1.504799 -4.239039 5.465561
-1.285140 -4.237074 5.600010
-1.450467 -4.262633 5.419231
-1.600887 -4.253899 5.360549
-1.674161 -4.230519 5.424194
-1.546565 -4.277482 5.314260
-1.747394 -4.207162 5.487893
-1.651383 -4.192277 5.592973
-1.802996 -4.195678 5.537151
-1.707027 -4.180788 5.642236
-1.486085 -4.166707 5.773788
-1.541744 -4.155215 5.823052
1.048984 -3.904457 8.437464
1.145051 -3.889585 8.542528
1.071777 -3.866205 8.606174
0.975688 -3.881065 8.501162
1.017455 -3.842622 8.652462
0.921356 -3.857471 8.547491
0.810365 -3.906627 8.320369
0.883668 -3.930024 8.256654
0.541214 -3.948242 8.025988
0.614517 -3.971639 7.962272
0.756030 -3.883029 8.366712
0.486879 -3.924644 8.072330
0.956975 -3.953397 8.192933
1.122272 -3.927827 8.373749
1.012633 -3.964888 8.143669
1.177916 -3.939316 8.324486
0.687823 -3.995012 7.898552
0.743482 -4.006503 7.849288
1.218284 -3.912942 8.478828
1.273885 -3.924426 8.429571
-0.269836 -4.108373 6.995019
0.206946 -4.034656 7.516495
0.133642 -4.011259 7.580210
-0.343140 -4.084977 7.058734
0.079307 -3.987661 7.626553
-0.397475 -4.061378 7.105078
-0.819922 -4.158694 6.537259
-0.746618 -4.182091 6.473544
-1.227494 -4.221711 6.091482
-1.154190 -4.245108 6.027767
-0.874257 -4.135096 6.583602
-1.281829 -4.198113 6.137825
-0.673312 -4.205464 6.409824
-0.196530 -4.131746 6.931299
-0.617654 -4.216955 6.360559
-0.140872 -4.143238 6.882035
-1.080884 -4.268481 5.964046
-1.025226 -4.279972 5.914782
0.280252 -4.058029 7.452775
0.335910 -4.069520 7.403510
-1.588655 -4.312276 5.552572
-1.423341 -4.286723 5.733386
-1.496645 -4.263326 5.797100
-1.661941 -4.288882 5.616282
-1.550980 -4.239727 5.843443
-1.716262 -4.265286 5.662623
-1.757947 -4.303723 5.511191
-1.684717 -4.327109 5.447499
-1.812226 -4.280133 5.557528
-1.611441 -4.350460 5.383847
-1.515357 -4.335644 5.488869
-1.555795 -4.361937 5.334637
-1.459702 -4.347131 5.439618
-1.350035 -4.310096 5.669665
-1.294376 -4.321587 5.620401
1.200963 -3.902941 8.298295
1.296967 -3.888069 8.403416
1.294264 -3.912184 8.409251
1.198281 -3.927068 8.304146
1.032992 -3.952639 8.123322
1.035667 -3.928507 8.117466
0.763841 -3.994254 7.828941
0.766516 -3.970122 7.823085
1.038270 -3.904353 8.111672
1.203557 -3.878791 8.292499
0.769119 -3.945968 7.817291
1.299538 -3.863932 8.397610
-0.117838 -4.106856 6.855832
0.358944 -4.033139 7.377307
0.356270 -4.057270 7.383163
-0.120512 -4.130988 6.861688
-0.597294 -4.204706 6.340213
-0.594620 -4.180574 6.334356
-1.004866 -4.267722 5.894436
-1.002191 -4.243591 5.888579
-0.592017 -4.156420 6.328563
-0.115235 -4.082702 6.850038
-0.999588 -4.219436 5.882786
0.361547 -4.008984 7.371514
-1.436677 -4.310760 5.413404
-1.271342 -4.285205 5.594198
-1.274017 -4.309337 5.600055
-1.439348 -4.334885 5.419267
-1.535460 -4.349701 5.314270
-1.532801 -4.325593 5.308387
-1.530186 -4.301450 5.302629
-1.434071 -4.286608 5.407619
-1.268739 -4.261051 5.588405
0.907566 -3.809345 8.553317
1.003690 -3.794511 8.658334
1.006348 -3.770402 8.652451
0.910236 -3.785219 8.547454
0.744905 -3.810767 8.366667
0.742231 -3.834898 8.372523
0.475754 -3.852382 8.072285
0.473080 -3.876513 8.078142
0.739629 -3.859053 8.378317
0.904961 -3.833496 8.559103
0.470478 -3.900667 8.083937
1.001076 -3.818654 8.664093
-0.411273 -4.013247 7.110889
0.065509 -3.939530 7.632365
0.068183 -3.915398 7.626508
-0.408599 -3.989116 7.105033
-0.885381 -4.062834 6.583558
-0.888055 -4.086965 6.589414
-1.292952 -4.125850 6.137780
-1.295627 -4.149982 6.143637
-0.890658 -4.111119 6.595208
-0.413876 -4.037402 7.116683
-1.298229 -4.174136 6.149431
0.062906 -3.963684 7.638159
-1.730073 -4.217163 5.668426
-1.564778 -4.191597 5.849256
-1.562103 -4.167465 5.843399
-1.727392 -4.193036 5.662575
-1.823375 -4.207920 5.557470
-1.826077 -4.232035 5.563305
-1.828648 -4.256172 5.569112
-1.732668 -4.241313 5.674223
-1.567380 -4.215751 5.855050
4 0 1 2 3
4 3 2 4 5
4 1 6 7 2
4 2 7 8 4
4 0 3 9 10
4 10 9 11 12
4 3 5 13 9
4 9 13 14 11
4 0 10 15 16
4 16 15 17 18
4 10 12 19 15
4 15 19 20 17
4 0 16 21 1
4 1 21 22 6
4 16 18 23 21
4 21 23 24 22
4 25 26 27 28
4 28 27 29 30
4 26 31 32 27
4 27 32 33 29
4 25 28 34 35
4 35 34 36 37
4 28 30 38 34
4 34 38 39 36
4 25 35 40 41
4 41 40 42 43
4 35 37 44 40
4 40 44 45 42
4 25 41 46 26
4 26 46 47 31
4 41 43 48 46
4 46 48 49 47
4 50 51 52 53
4 53 52 54 55
4 51 56 57 52
4 52 57 58 54
4 50 53 59 60
4 60 59 7 6
4 53 55 61 59
4 59 61 8 7
4 50 60 62 63
4 63 62 64 65
4 60 6 22 62
4 62 22 24 64
4 50 63 66 51
4 51 66 67 56
4 63 65 68 66
4 66 68 69 67
4 70 71 72 73
4 73 72 74 75
4 71 56 67 72
4 72 67 69 74
4 70 73 76 77
4 77 76 78 79
4 73 75 80 76
4 76 80 81 78
4 70 77 82 83
4 83 82 84 85
4 77 79 86 82
4 82 86 87 84
4 70 83 88 71
4 71 88 57 56
4 83 85 89 88
4 88 89 58 57
4 90 91 92 93
4 93 92 94 95
4 91 79 78 92
4 92 78 81 94
4 90 93 96 97
4 97 96 32 31
4 93 95 98 96
4 96 98 33 32
4 90 97 99 100
4 100 99 101 102
4 97 31 47 99
4 99 47 49 101
4 90 100 103 91
4 91 103 86 79
4 100 102 104 103
4 103 104 87 86
4 105 106 107 108
4 108 107 109 110
4 106 12 11 107
4 107 11 14 109
4 105 108 111 112
4 112 111 113 114
4 108 110 115 111
4 111 115 116 113
4 105 112 117 118
4 118 117 119 120
4 112 114 121 117
4 117 121 122 119
4 105 118 123 106
4 106 123 19 12
4 118 120 124 123
4 123 124 20 19
4 125 126 127 128
4 128 127 129 130
4 126 114 113 127
4 127 113 116 129
4 125 128 131 132
4 132 131 133 134
4 128 130 135 131
4 131 135 136 133
4 125 132 137 138
4 138 137 139 140
4 132 134 141 137
4 137 141 142 139
4 125 138 143 126
4 126 143 121 114
4 138 140 144 143
4 143 144 122 121
4 145 146 147 148
4 148 147 149 150
4 146 134 133 147
4 147 133 136 149
4 145 148 151 152
4 152 151 44 37
4 148 150 153 151
4 151 153 45 44
4 145 152 154 155
4 155 154 156 157
4 152 37 36 154
4 154 36 39 156
4 145 155 158 146
4 146 158 141 134
4 155 157 159 158
4 158 159 142 141
4 160 161 162 163
4 163 162 124 120
4 161 18 17 162
4 162 17 20 124
4 160 163 164 165
4 165 164 166 167
4 163 120 119 164
4 164 119 122 166
4 160 165 168 169
4 169 168 68 65
4 165 167 170 168
4 168 170 69 68
4 160 169 171 161
4 161 171 23 18
4 169 65 64 171
4 171 64 24 23
4 172 173 174 175
4 175 174 144 140
4 173 167 166 174
4 174 166 122 144
4 172 175 176 177
4 177 176 178 179
4 175 140 139 176
4 176 139 142 178
4 172 177 180 181
4 181 180 80 75
4 177 179 182 180
4 180 182 81 80
4 172 181 183 173
4 173 183 170 167
4 181 75 74 183
4 183 74 69 170
4 184 185 186 187
4 187 186 159 157
4 185 179 178 186
4 186 178 142 159
4 184 187 188 189
4 189 188 38 30
4 187 157 156 188
4 188 156 39 38
4 184 189 190 191
4 191 190 98 95
4 189 30 29 190
4 190 29 33 98
4 184 191 192 185
4 185 192 182 179
4 191 95 94 192
4 192 94 81 182
4 193 194 195 196
4 196 195 61 55
4 194 5 4 195
4 195 4 8 61
4 193 196 197 198
4 198 197 199 200
4 196 55 54 197
4 197 54 58 199
4 193 198 201 202
4 202 201 115 110
4 198 200 203 201
4 201 203 116 115
4 193 202 204 194
4 194 204 13 5
4 202 110 109 204
4 204 109 14 13
4 205 206 207 208
4 208 207 89 85
4 206 200 199 207
4 207 199 58 89
4 205 208 209 210
4 210 209 211 212
4 208 85 84 209
4 209 84 87 211
4 205 210 213 214
4 214 213 135 130
4 210 212 215 213
4 213 215 136 135
4 205 214 216 206
4 206 216 203 200
4 214 130 129 216
4 216 129 116 203
4 217 218 219 220
4 220 219 104 102
4 218 212 211 219
4 219 211 87 104
4 217 220 221 222
4 222 221 48 43
4 220 102 101 221
4 221 101 49 48
4 217 222 223 224
4 224 223 153 150
4 222 43 42 223
4 223 42 45 153
4 217 224 225 218
4 218 225 215 212
4 224 150 149 225
4 225 149 136 215
